%TF.GenerationSoftware,KiCad,Pcbnew,10.0.0*%
%TF.CreationDate,2026-05-03T16:58:09-04:00*%
%TF.ProjectId,custom_devboard,63757374-6f6d-45f6-9465-76626f617264,rev?*%
%TF.SameCoordinates,Original*%
%TF.FileFunction,Soldermask,Bot*%
%TF.FilePolarity,Negative*%
%FSLAX46Y46*%
G04 Gerber Fmt 4.6, Leading zero omitted, Abs format (unit mm)*
G04 Created by KiCad (PCBNEW 10.0.0) date 2026-05-03 16:58:09*
%MOMM*%
%LPD*%
G01*
G04 APERTURE LIST*
%ADD10C,0.650000*%
%ADD11O,1.000000X2.100000*%
%ADD12O,1.000000X1.600000*%
%ADD13R,1.700000X1.700000*%
%ADD14C,1.700000*%
G04 APERTURE END LIST*
D10*
%TO.C,J1*%
X102890000Y-79600000D03*
X97110000Y-79600000D03*
D11*
X104320000Y-80130000D03*
D12*
X104320000Y-75950000D03*
D11*
X95680000Y-80130000D03*
D12*
X95680000Y-75950000D03*
%TD*%
D13*
%TO.C,J2*%
X91110000Y-75870000D03*
D14*
X91110000Y-78410000D03*
X91110000Y-80950000D03*
X91110000Y-83490000D03*
X91110000Y-86030000D03*
X91110000Y-88570000D03*
X91110000Y-91110000D03*
X91110000Y-93650000D03*
X91110000Y-96190000D03*
X91110000Y-98730000D03*
X91110000Y-101270000D03*
X91110000Y-103810000D03*
X91110000Y-106350000D03*
X91110000Y-108890000D03*
X91110000Y-111430000D03*
X91110000Y-113970000D03*
X91110000Y-116510000D03*
X91110000Y-119050000D03*
X91110000Y-121590000D03*
X91110000Y-124130000D03*
%TD*%
D13*
%TO.C,J3*%
X108890000Y-75870000D03*
D14*
X108890000Y-78410000D03*
X108890000Y-80950000D03*
X108890000Y-83490000D03*
X108890000Y-86030000D03*
X108890000Y-88570000D03*
X108890000Y-91110000D03*
X108890000Y-93650000D03*
X108890000Y-96190000D03*
X108890000Y-98730000D03*
X108890000Y-101270000D03*
X108890000Y-103810000D03*
X108890000Y-106350000D03*
X108890000Y-108890000D03*
X108890000Y-111430000D03*
X108890000Y-113970000D03*
X108890000Y-116510000D03*
X108890000Y-119050000D03*
X108890000Y-121590000D03*
X108890000Y-124130000D03*
%TD*%
D13*
%TO.C,J4*%
X97460000Y-123890000D03*
D14*
X100000000Y-123890000D03*
X102540000Y-123890000D03*
%TD*%
M02*
