%TF.GenerationSoftware,KiCad,Pcbnew,10.0.0*%
%TF.CreationDate,2026-05-03T16:58:09-04:00*%
%TF.ProjectId,custom_devboard,63757374-6f6d-45f6-9465-76626f617264,rev?*%
%TF.SameCoordinates,Original*%
%TF.FileFunction,Copper,L2,Bot*%
%TF.FilePolarity,Positive*%
%FSLAX46Y46*%
G04 Gerber Fmt 4.6, Leading zero omitted, Abs format (unit mm)*
G04 Created by KiCad (PCBNEW 10.0.0) date 2026-05-03 16:58:09*
%MOMM*%
%LPD*%
G01*
G04 APERTURE LIST*
%TA.AperFunction,ComponentPad*%
%ADD10O,1.000000X2.100000*%
%TD*%
%TA.AperFunction,ComponentPad*%
%ADD11O,1.000000X1.600000*%
%TD*%
%TA.AperFunction,ComponentPad*%
%ADD12R,1.700000X1.700000*%
%TD*%
%TA.AperFunction,ComponentPad*%
%ADD13C,1.700000*%
%TD*%
%TA.AperFunction,ViaPad*%
%ADD14C,0.600000*%
%TD*%
%TA.AperFunction,Conductor*%
%ADD15C,0.200000*%
%TD*%
G04 APERTURE END LIST*
D10*
%TO.P,J1,SH,SHIELD_SH*%
%TO.N,GND*%
X104320000Y-80130000D03*
D11*
X104320000Y-75950000D03*
D10*
X95680000Y-80130000D03*
D11*
X95680000Y-75950000D03*
%TD*%
D12*
%TO.P,J2,1,Pin_1_1*%
%TO.N,GPIO0*%
X91110000Y-75870000D03*
D13*
%TO.P,J2,2,Pin_2_2*%
%TO.N,GPIO1*%
X91110000Y-78410000D03*
%TO.P,J2,3,Pin_3_3*%
%TO.N,GND*%
X91110000Y-80950000D03*
%TO.P,J2,4,Pin_4_4*%
%TO.N,GPIO2*%
X91110000Y-83490000D03*
%TO.P,J2,5,Pin_5_5*%
%TO.N,GPIO3*%
X91110000Y-86030000D03*
%TO.P,J2,6,Pin_6_6*%
%TO.N,GPIO4*%
X91110000Y-88570000D03*
%TO.P,J2,7,Pin_7_7*%
%TO.N,GPIO5*%
X91110000Y-91110000D03*
%TO.P,J2,8,Pin_8_8*%
%TO.N,GND*%
X91110000Y-93650000D03*
%TO.P,J2,9,Pin_9_9*%
%TO.N,GPIO6*%
X91110000Y-96190000D03*
%TO.P,J2,10,Pin_10_10*%
%TO.N,GPIO7*%
X91110000Y-98730000D03*
%TO.P,J2,11,Pin_11_11*%
%TO.N,GPIO8*%
X91110000Y-101270000D03*
%TO.P,J2,12,Pin_12_12*%
%TO.N,GPIO9*%
X91110000Y-103810000D03*
%TO.P,J2,13,Pin_13_13*%
%TO.N,GND*%
X91110000Y-106350000D03*
%TO.P,J2,14,Pin_14_14*%
%TO.N,GPIO10*%
X91110000Y-108890000D03*
%TO.P,J2,15,Pin_15_15*%
%TO.N,GPIO11*%
X91110000Y-111430000D03*
%TO.P,J2,16,Pin_16_16*%
%TO.N,GPIO12*%
X91110000Y-113970000D03*
%TO.P,J2,17,Pin_17_17*%
%TO.N,GPIO13*%
X91110000Y-116510000D03*
%TO.P,J2,18,Pin_18_18*%
%TO.N,GND*%
X91110000Y-119050000D03*
%TO.P,J2,19,Pin_19_19*%
%TO.N,GPIO14*%
X91110000Y-121590000D03*
%TO.P,J2,20,Pin_20_20*%
%TO.N,GPIO15*%
X91110000Y-124130000D03*
%TD*%
D12*
%TO.P,J3,1,Pin_1_1*%
%TO.N,VBUS*%
X108890000Y-75870000D03*
D13*
%TO.P,J3,2,Pin_2_2*%
%TO.N,GPIO29_ADC3*%
X108890000Y-78410000D03*
%TO.P,J3,3,Pin_3_3*%
%TO.N,GND*%
X108890000Y-80950000D03*
%TO.P,J3,4,Pin_4_4*%
%TO.N,GPIO28_ADC2*%
X108890000Y-83490000D03*
%TO.P,J3,5,Pin_5_5*%
%TO.N,+3V3*%
X108890000Y-86030000D03*
%TO.P,J3,6,Pin_6_6*%
%TO.N,GPIO27_ADC1*%
X108890000Y-88570000D03*
%TO.P,J3,7,Pin_7_7*%
%TO.N,GPIO26_ADC0*%
X108890000Y-91110000D03*
%TO.P,J3,8,Pin_8_8*%
%TO.N,GND*%
X108890000Y-93650000D03*
%TO.P,J3,9,Pin_9_9*%
%TO.N,GPIO24*%
X108890000Y-96190000D03*
%TO.P,J3,10,Pin_10_10*%
%TO.N,GPIO23*%
X108890000Y-98730000D03*
%TO.P,J3,11,Pin_11_11*%
%TO.N,RUN*%
X108890000Y-101270000D03*
%TO.P,J3,12,Pin_12_12*%
%TO.N,GPIO22*%
X108890000Y-103810000D03*
%TO.P,J3,13,Pin_13_13*%
%TO.N,GND*%
X108890000Y-106350000D03*
%TO.P,J3,14,Pin_14_14*%
%TO.N,GPIO21*%
X108890000Y-108890000D03*
%TO.P,J3,15,Pin_15_15*%
%TO.N,GPIO20*%
X108890000Y-111430000D03*
%TO.P,J3,16,Pin_16_16*%
%TO.N,GPIO19*%
X108890000Y-113970000D03*
%TO.P,J3,17,Pin_17_17*%
%TO.N,GPIO18*%
X108890000Y-116510000D03*
%TO.P,J3,18,Pin_18_18*%
%TO.N,GND*%
X108890000Y-119050000D03*
%TO.P,J3,19,Pin_19_19*%
%TO.N,GPIO17*%
X108890000Y-121590000D03*
%TO.P,J3,20,Pin_20_20*%
%TO.N,GPIO16*%
X108890000Y-124130000D03*
%TD*%
D12*
%TO.P,J4,1,Pin_1_1*%
%TO.N,SWCLK*%
X97460000Y-123890000D03*
D13*
%TO.P,J4,2,Pin_2_2*%
%TO.N,GND*%
X100000000Y-123890000D03*
%TO.P,J4,3,Pin_3_3*%
%TO.N,SWD*%
X102540000Y-123890000D03*
%TD*%
D14*
%TO.N,+1V1*%
X102100000Y-104000000D03*
X100500000Y-110000000D03*
X101500000Y-111100000D03*
%TO.N,GND*%
X104850000Y-89000000D03*
X96500000Y-86000000D03*
X95068627Y-90000000D03*
X96503750Y-97496250D03*
X103180000Y-88000000D03*
X97900000Y-99665684D03*
X99130000Y-86990000D03*
X106600000Y-89500000D03*
X99500000Y-104500000D03*
X94500000Y-95500000D03*
X98550000Y-85500000D03*
X99327583Y-107167278D03*
X100500000Y-116390000D03*
X94500000Y-93500000D03*
X101000000Y-117590000D03*
X103500000Y-116000000D03*
X103910000Y-87030000D03*
X97100000Y-120350000D03*
X94900000Y-118650000D03*
X93592843Y-83950049D03*
X102000000Y-86990000D03*
X106600000Y-87471472D03*
X99085000Y-88915000D03*
X103910000Y-85060000D03*
%TO.N,+3V3*%
X107500000Y-106500000D03*
X102000000Y-97500000D03*
X100000000Y-88000000D03*
X96000000Y-98500000D03*
X100500000Y-100500000D03*
X102000000Y-100500000D03*
X104322061Y-100331493D03*
X98190000Y-86990000D03*
X104000000Y-90000000D03*
X101040000Y-90000000D03*
%TO.N,USB_D-*%
X95000000Y-112500000D03*
X99500000Y-79600000D03*
%TO.N,Net-(U1-USB_DP)*%
X100979964Y-102390540D03*
X96930197Y-111930197D03*
%TO.N,VBUS*%
X98516489Y-84016489D03*
X96500000Y-83000000D03*
%TO.N,Net-(J1-CC1)*%
X96000000Y-88000000D03*
X98770000Y-88000000D03*
%TO.N,QSPI_SS*%
X98198082Y-102500000D03*
X100000000Y-98701625D03*
X98500000Y-116990000D03*
%TO.N,GPIO12*%
X93000000Y-112500000D03*
X94651472Y-111000000D03*
%TO.N,GPIO13*%
X97500000Y-107500000D03*
X96500000Y-109000000D03*
%TO.N,GPIO14*%
X94075735Y-114575735D03*
X98341869Y-107539844D03*
%TO.N,XIN*%
X98000000Y-110000000D03*
X102500000Y-102500000D03*
X97000000Y-116500000D03*
X101845151Y-99643187D03*
%TO.N,SWCLK*%
X100181486Y-111213714D03*
%TO.N,SWD*%
X101745200Y-110000000D03*
%TO.N,RUN*%
X106925735Y-104925735D03*
X103488235Y-111011765D03*
%TO.N,QSPI_SP3*%
X99795743Y-102900000D03*
X102000000Y-95000000D03*
%TO.N,QSPI_SCLK*%
X97899998Y-105000000D03*
X102000000Y-96000000D03*
%TO.N,QSPI_SD0*%
X99240129Y-100214491D03*
X101709205Y-98854820D03*
%TO.N,QSPI_SP1*%
X99600000Y-99500000D03*
X97600001Y-100645229D03*
%TD*%
%TO.N,+1V1*%
D15*
X102100000Y-104000000D02*
X102600000Y-103500000D01*
X103500000Y-103500000D02*
X104500000Y-104500000D01*
X104500000Y-106000000D02*
X100500000Y-110000000D01*
X101500000Y-111000000D02*
X100500000Y-110000000D01*
X104500000Y-104500000D02*
X104500000Y-106000000D01*
X101500000Y-111100000D02*
X101500000Y-111000000D01*
X102600000Y-103500000D02*
X103500000Y-103500000D01*
%TO.N,GND*%
X97100000Y-120350000D02*
X95400000Y-118650000D01*
X99400000Y-87260000D02*
X99130000Y-86990000D01*
X97351472Y-101245229D02*
X97000001Y-100893758D01*
X104320000Y-80130000D02*
X108070000Y-80130000D01*
X98941869Y-107291315D02*
X98941869Y-107500000D01*
X100397058Y-103602942D02*
X100397058Y-102651472D01*
X97251471Y-106900000D02*
X97748529Y-106900000D01*
X103910000Y-88060000D02*
X104850000Y-89000000D01*
X103180000Y-88000000D02*
X103010000Y-88000000D01*
X103910000Y-87030000D02*
X103910000Y-88060000D01*
X101000000Y-116890000D02*
X100500000Y-116390000D01*
X103010000Y-88000000D02*
X102000000Y-86990000D01*
X98093340Y-106939844D02*
X98590398Y-106939844D01*
X94500000Y-119050000D02*
X94900000Y-118650000D01*
X92260000Y-117900000D02*
X92260000Y-107500000D01*
X99085000Y-88915000D02*
X99400000Y-88600000D01*
X107740000Y-117900000D02*
X108890000Y-119050000D01*
X92260000Y-107500000D02*
X91110000Y-106350000D01*
X108890000Y-119050000D02*
X106550000Y-119050000D01*
X91110000Y-119050000D02*
X94500000Y-119050000D01*
X97987500Y-86000000D02*
X98550000Y-85437500D01*
X106600000Y-91360000D02*
X106600000Y-89500000D01*
X94507500Y-95500000D02*
X94500000Y-95500000D01*
X94760000Y-90000000D02*
X95068627Y-90000000D01*
X91110000Y-119050000D02*
X92260000Y-117900000D01*
X108890000Y-106350000D02*
X107740000Y-107500000D01*
X91110000Y-80950000D02*
X93592843Y-83432843D01*
X107740000Y-107500000D02*
X107740000Y-117900000D01*
X100397058Y-102651472D02*
X98990815Y-101245229D01*
X96900000Y-107251471D02*
X97251471Y-106900000D01*
X96500000Y-86000000D02*
X97987500Y-86000000D01*
X92260000Y-107500000D02*
X96900000Y-107500000D01*
X94500000Y-93500000D02*
X94350000Y-93650000D01*
X97000001Y-100893758D02*
X97000001Y-100396700D01*
X96503750Y-97496250D02*
X94507500Y-95500000D01*
X97940857Y-107092328D02*
X98093340Y-106939844D01*
X91110000Y-93650000D02*
X94760000Y-90000000D01*
X97748529Y-106900000D02*
X97940857Y-107092328D01*
X93592843Y-83432843D02*
X93592843Y-83950049D01*
X95680000Y-75950000D02*
X95680000Y-80130000D01*
X98994861Y-107500000D02*
X99327583Y-107167278D01*
X97000001Y-100396700D02*
X97731017Y-99665684D01*
X94350000Y-93650000D02*
X91110000Y-93650000D01*
X106550000Y-119050000D02*
X103500000Y-116000000D01*
X98590398Y-106939844D02*
X98941869Y-107291315D01*
X94860000Y-80950000D02*
X95680000Y-80130000D01*
X98990815Y-101245229D02*
X97351472Y-101245229D01*
X98941869Y-107500000D02*
X98994861Y-107500000D01*
X103910000Y-87030000D02*
X103910000Y-85060000D01*
X99500000Y-104500000D02*
X100397058Y-103602942D01*
X108070000Y-80130000D02*
X108890000Y-80950000D01*
X106600000Y-87471472D02*
X106378528Y-87471472D01*
X97731017Y-99665684D02*
X97900000Y-99665684D01*
X101000000Y-117590000D02*
X101000000Y-116890000D01*
X94900000Y-118650000D02*
X95400000Y-118650000D01*
X104320000Y-75950000D02*
X104320000Y-80130000D01*
X106378528Y-87471472D02*
X104850000Y-89000000D01*
X108890000Y-93650000D02*
X106600000Y-91360000D01*
X96900000Y-107500000D02*
X96900000Y-107251471D01*
X99400000Y-88600000D02*
X99400000Y-87260000D01*
X91110000Y-80950000D02*
X94860000Y-80950000D01*
%TO.N,+3V3*%
X103848529Y-101000000D02*
X107525735Y-104677206D01*
X101000000Y-94000000D02*
X96500000Y-98500000D01*
X103000000Y-98500000D02*
X102000000Y-97500000D01*
X104322061Y-100331493D02*
X103848529Y-100805025D01*
X100500000Y-100500000D02*
X102000000Y-100500000D01*
X99090000Y-86090000D02*
X98190000Y-86990000D01*
X103000000Y-94585785D02*
X102414215Y-94000000D01*
X104920000Y-90000000D02*
X104000000Y-90000000D01*
X102000000Y-97500000D02*
X103000000Y-96500000D01*
X102414215Y-94000000D02*
X101000000Y-94000000D01*
X96500000Y-98500000D02*
X96000000Y-98500000D01*
X100000000Y-88000000D02*
X100000000Y-87000000D01*
X103000000Y-96500000D02*
X103000000Y-94585785D01*
X103848529Y-100805025D02*
X103848529Y-101000000D01*
X106153554Y-98500000D02*
X103000000Y-98500000D01*
X107525735Y-106474265D02*
X107500000Y-106500000D01*
X108890000Y-86030000D02*
X104920000Y-90000000D01*
X104322061Y-100331493D02*
X104322061Y-99509432D01*
X104000000Y-90000000D02*
X101040000Y-90000000D01*
X107525735Y-104677206D02*
X107525735Y-106474265D01*
X104322061Y-99509432D02*
X105144122Y-99509432D01*
X100000000Y-87000000D02*
X99090000Y-86090000D01*
X105144122Y-99509432D02*
X106153554Y-98500000D01*
%TO.N,USB_D-*%
X95000000Y-112065686D02*
X95000000Y-112500000D01*
X99576112Y-107767278D02*
X99298408Y-107767278D01*
X93000000Y-95000000D02*
X94600000Y-96600000D01*
X96585785Y-107000000D02*
X97085786Y-106500000D01*
X94600000Y-105550000D02*
X96050000Y-107000000D01*
X93848529Y-95000000D02*
X93000000Y-95000000D01*
X96050000Y-107000000D02*
X96585785Y-107000000D01*
X94600000Y-96600000D02*
X94600000Y-105550000D01*
X97914215Y-106500000D02*
X97954059Y-106539844D01*
X98756084Y-106539844D02*
X98931286Y-106715046D01*
X99576112Y-106567278D02*
X99927583Y-106918749D01*
X99927583Y-107415807D02*
X99576112Y-107767278D01*
X99079054Y-106567278D02*
X99576112Y-106567278D01*
X100600000Y-80700000D02*
X100600000Y-88248529D01*
X97954059Y-106539844D02*
X98756084Y-106539844D01*
X97085786Y-106500000D02*
X97914215Y-106500000D01*
X100600000Y-88248529D02*
X93848529Y-95000000D01*
X99298408Y-107767278D02*
X95000000Y-112065686D01*
X99500000Y-79600000D02*
X100600000Y-80700000D01*
X99927583Y-106918749D02*
X99927583Y-107415807D01*
X98931286Y-106715046D02*
X99079054Y-106567278D01*
%TO.N,Net-(U1-USB_DP)*%
X100000000Y-108860394D02*
X96930197Y-111930197D01*
X101000000Y-107000000D02*
X100000000Y-108000000D01*
X100000000Y-108000000D02*
X100000000Y-108860394D01*
X100979964Y-102390540D02*
X101000000Y-102410576D01*
X101000000Y-102410576D02*
X101000000Y-107000000D01*
%TO.N,VBUS*%
X96500000Y-83000000D02*
X97516489Y-84016489D01*
X97516489Y-84016489D02*
X98516489Y-84016489D01*
%TO.N,Net-(J1-CC1)*%
X98770000Y-88000000D02*
X96000000Y-88000000D01*
%TO.N,QSPI_SS*%
X100332761Y-99101554D02*
X100979495Y-98454820D01*
X100000000Y-98701625D02*
X100000000Y-98768793D01*
X100000000Y-98768793D02*
X100332761Y-99101554D01*
X101260676Y-98454820D02*
X101460676Y-98254820D01*
X98100000Y-103200000D02*
X98734314Y-103200000D01*
X101551471Y-95400000D02*
X101317157Y-95400000D01*
X101500000Y-103000000D02*
X101600000Y-103100000D01*
X102034314Y-98100000D02*
X101751471Y-98100000D01*
X97748529Y-102400000D02*
X98100000Y-102751471D01*
X101400000Y-97748529D02*
X101400000Y-97251471D01*
X103500000Y-99500000D02*
X103100000Y-99100000D01*
X103100000Y-101600000D02*
X103000000Y-101500000D01*
X101500000Y-104726080D02*
X101500000Y-103000000D01*
X100979495Y-98454820D02*
X101260676Y-98454820D01*
X101751471Y-96600000D02*
X101400000Y-96248529D01*
X99348529Y-102500000D02*
X98198082Y-102500000D01*
X99197058Y-102737257D02*
X99197058Y-102651472D01*
X97748529Y-101715686D02*
X97748529Y-102400000D01*
X97185786Y-101645229D02*
X97678072Y-101645229D01*
X98100000Y-102751471D02*
X98100000Y-103200000D01*
X103034314Y-99100000D02*
X102034314Y-98100000D01*
X99197058Y-102651472D02*
X99348529Y-102500000D01*
X101957734Y-98254820D02*
X102309205Y-98606291D01*
X97678072Y-101645229D02*
X97748529Y-101715686D01*
X101600000Y-103100000D02*
X102748529Y-103100000D01*
X102034314Y-96900000D02*
X102600000Y-96334314D01*
X103000000Y-101500000D02*
X103000000Y-101087868D01*
X101651471Y-95500000D02*
X101551471Y-95400000D01*
X102600000Y-96334314D02*
X102600000Y-96248529D01*
X102748529Y-103100000D02*
X103100000Y-102748529D01*
X101400000Y-96248529D02*
X101400000Y-95751471D01*
X102600000Y-96248529D02*
X102248529Y-96600000D01*
X103100000Y-106326080D02*
X101500000Y-104726080D01*
X98500000Y-116990000D02*
X98500000Y-110926080D01*
X102309205Y-98606291D02*
X102309205Y-99100000D01*
X102248529Y-96600000D02*
X101751471Y-96600000D01*
X103500000Y-100587868D02*
X103500000Y-99500000D01*
X101751471Y-96900000D02*
X102034314Y-96900000D01*
X101460676Y-98254820D02*
X101957734Y-98254820D01*
X96248529Y-100900000D02*
X96600000Y-101251471D01*
X103100000Y-99100000D02*
X103034314Y-99100000D01*
X98500000Y-110926080D02*
X103100000Y-106326080D01*
X101751471Y-98100000D02*
X101400000Y-97748529D01*
X96792029Y-101251471D02*
X97185786Y-101645229D01*
X98734314Y-103200000D02*
X99197058Y-102737257D01*
X101317157Y-95400000D02*
X95817157Y-100900000D01*
X101400000Y-95751471D02*
X101651471Y-95500000D01*
X103000000Y-101087868D02*
X103500000Y-100587868D01*
X102309205Y-99100000D02*
X103034314Y-99100000D01*
X96600000Y-101251471D02*
X96792029Y-101251471D01*
X101400000Y-97251471D02*
X101751471Y-96900000D01*
X103100000Y-102748529D02*
X103100000Y-101600000D01*
X95817157Y-100900000D02*
X96248529Y-100900000D01*
%TO.N,GPIO12*%
X94651472Y-111000000D02*
X94500000Y-111000000D01*
X94500000Y-111000000D02*
X93000000Y-112500000D01*
%TO.N,GPIO13*%
X96500000Y-108500000D02*
X97500000Y-107500000D01*
X96500000Y-109000000D02*
X96500000Y-108500000D01*
%TO.N,GPIO14*%
X94075735Y-112424265D02*
X95500000Y-111000000D01*
X97100000Y-109248529D02*
X97100000Y-108900000D01*
X97100000Y-108900000D02*
X98341869Y-107658131D01*
X94075735Y-114575735D02*
X94075735Y-112424265D01*
X98341869Y-107658131D02*
X98341869Y-107539844D01*
X95500000Y-110500000D02*
X96400000Y-109600000D01*
X96748529Y-109600000D02*
X97100000Y-109248529D01*
X95500000Y-111000000D02*
X95500000Y-110500000D01*
X96400000Y-109600000D02*
X96748529Y-109600000D01*
%TO.N,XIN*%
X102500000Y-101000000D02*
X103100000Y-100400000D01*
X98000000Y-110000000D02*
X96330197Y-111669803D01*
X103100000Y-99665686D02*
X102934314Y-99500000D01*
X102500000Y-102500000D02*
X102500000Y-101000000D01*
X101988338Y-99500000D02*
X101845151Y-99643187D01*
X96330197Y-115830197D02*
X97000000Y-116500000D01*
X103100000Y-100400000D02*
X103100000Y-99665686D01*
X96330197Y-111669803D02*
X96330197Y-115830197D01*
X102934314Y-99500000D02*
X101988338Y-99500000D01*
%TO.N,SWCLK*%
X99900000Y-111495200D02*
X99900000Y-121450000D01*
X99900000Y-121450000D02*
X97460000Y-123890000D01*
X100181486Y-111213714D02*
X99900000Y-111495200D01*
%TO.N,SWD*%
X102000000Y-123350000D02*
X102540000Y-123890000D01*
X102000000Y-111448529D02*
X102000000Y-123350000D01*
X102100000Y-111348529D02*
X102000000Y-111448529D01*
X102100000Y-110900000D02*
X102100000Y-111348529D01*
X102500000Y-110500000D02*
X102100000Y-110900000D01*
X101565686Y-110500000D02*
X102500000Y-110500000D01*
X101745200Y-110000000D02*
X101745200Y-110254800D01*
X101532843Y-110467157D02*
X101565686Y-110500000D01*
X101745200Y-110254800D02*
X101532843Y-110467157D01*
%TO.N,RUN*%
X103488235Y-108363235D02*
X103488235Y-111011765D01*
X106925735Y-104925735D02*
X103488235Y-108363235D01*
%TO.N,QSPI_SP3*%
X98075735Y-104424264D02*
X95400000Y-101748529D01*
X99795743Y-102900000D02*
X99795742Y-102900001D01*
X95400000Y-100751471D02*
X101151471Y-95000000D01*
X99599999Y-102900001D02*
X98075735Y-104424264D01*
X99795742Y-102900001D02*
X99599999Y-102900001D01*
X101151471Y-95000000D02*
X102000000Y-95000000D01*
X95400000Y-101748529D02*
X95400000Y-100751471D01*
%TO.N,QSPI_SCLK*%
X102248529Y-94400000D02*
X102600000Y-94751471D01*
X102600000Y-94751471D02*
X102600000Y-95400000D01*
X102600000Y-95400000D02*
X102000000Y-96000000D01*
X95000000Y-100585785D02*
X101185785Y-94400000D01*
X97899998Y-105000000D02*
X97899998Y-104899998D01*
X95000000Y-102000000D02*
X95000000Y-100585785D01*
X101185785Y-94400000D02*
X102248529Y-94400000D01*
X97899998Y-104899998D02*
X95000000Y-102000000D01*
%TO.N,QSPI_SD0*%
X100134671Y-99813858D02*
X100186142Y-99813858D01*
X100186142Y-99813858D02*
X101145180Y-98854820D01*
X101145180Y-98854820D02*
X101709205Y-98854820D01*
X99354620Y-100100000D02*
X99848529Y-100100000D01*
X99240129Y-100214491D02*
X99354620Y-100100000D01*
X99848529Y-100100000D02*
X100134671Y-99813858D01*
%TO.N,QSPI_SP1*%
X97745230Y-100500000D02*
X98000000Y-100500000D01*
X98500000Y-100000000D02*
X98500000Y-99500000D01*
X97600001Y-100645229D02*
X97745230Y-100500000D01*
X98000000Y-100500000D02*
X98500000Y-100000000D01*
X98500000Y-99500000D02*
X99600000Y-99500000D01*
%TD*%
M02*
