M48
; DRILL file KiCad 10.0.0 date 2026-05-03T16:58:35
; FORMAT={-:-/ absolute / metric / decimal}
; #@! TF.CreationDate,2026-05-03T16:58:35-04:00
; #@! TF.GenerationSoftware,Kicad,Pcbnew,10.0.0
; #@! TF.FileFunction,Plated,1,2,PTH
FMAT,2
METRIC
; #@! TA.AperFunction,Plated,PTH,ViaDrill
T1C0.300
; #@! TA.AperFunction,Plated,PTH,ComponentDrill
T2C0.600
; #@! TA.AperFunction,Plated,PTH,ComponentDrill
T3C1.000
%
G90
G05
T1
X93.0Y-112.5
X93.593Y-83.95
X94.076Y-114.576
X94.5Y-93.5
X94.5Y-95.5
X94.651Y-111.0
X94.9Y-118.65
X95.0Y-112.5
X95.069Y-90.0
X96.0Y-88.0
X96.0Y-98.5
X96.5Y-83.0
X96.5Y-86.0
X96.5Y-109.0
X96.504Y-97.496
X96.93Y-111.93
X97.0Y-116.5
X97.1Y-120.35
X97.5Y-107.5
X97.6Y-100.645
X97.9Y-105.0
X97.9Y-99.666
X98.0Y-110.0
X98.19Y-86.99
X98.198Y-102.5
X98.342Y-107.54
X98.5Y-116.99
X98.516Y-84.016
X98.55Y-85.5
X98.77Y-88.0
X99.085Y-88.915
X99.13Y-86.99
X99.24Y-100.214
X99.328Y-107.167
X99.5Y-79.6
X99.5Y-104.5
X99.6Y-99.5
X99.796Y-102.9
X100.0Y-88.0
X100.0Y-98.702
X100.181Y-111.214
X100.5Y-100.5
X100.5Y-110.0
X100.5Y-116.39
X100.98Y-102.391
X101.0Y-117.59
X101.04Y-90.0
X101.5Y-111.1
X101.709Y-98.855
X101.745Y-110.0
X101.845Y-99.643
X102.0Y-86.99
X102.0Y-95.0
X102.0Y-96.0
X102.0Y-97.5
X102.0Y-100.5
X102.1Y-104.0
X102.5Y-102.5
X103.18Y-88.0
X103.488Y-111.012
X103.5Y-116.0
X103.91Y-85.06
X103.91Y-87.03
X104.0Y-90.0
X104.322Y-100.331
X104.85Y-89.0
X106.6Y-87.471
X106.6Y-89.5
X106.926Y-104.926
X107.5Y-106.5
T3
X91.11Y-75.87
X91.11Y-78.41
X91.11Y-80.95
X91.11Y-83.49
X91.11Y-86.03
X91.11Y-88.57
X91.11Y-91.11
X91.11Y-93.65
X91.11Y-96.19
X91.11Y-98.73
X91.11Y-101.27
X91.11Y-103.81
X91.11Y-106.35
X91.11Y-108.89
X91.11Y-111.43
X91.11Y-113.97
X91.11Y-116.51
X91.11Y-119.05
X91.11Y-121.59
X91.11Y-124.13
X97.46Y-123.89
X100.0Y-123.89
X102.54Y-123.89
X108.89Y-75.87
X108.89Y-78.41
X108.89Y-80.95
X108.89Y-83.49
X108.89Y-86.03
X108.89Y-88.57
X108.89Y-91.11
X108.89Y-93.65
X108.89Y-96.19
X108.89Y-98.73
X108.89Y-101.27
X108.89Y-103.81
X108.89Y-106.35
X108.89Y-108.89
X108.89Y-111.43
X108.89Y-113.97
X108.89Y-116.51
X108.89Y-119.05
X108.89Y-121.59
X108.89Y-124.13
T2
X95.68Y-76.25G85X95.68Y-75.65
G05
X95.68Y-80.68G85X95.68Y-79.58
G05
X104.32Y-76.25G85X104.32Y-75.65
G05
X104.32Y-80.68G85X104.32Y-79.58
G05
M30
