%TF.GenerationSoftware,KiCad,Pcbnew,10.0.0*%
%TF.CreationDate,2026-05-03T16:58:30-04:00*%
%TF.ProjectId,custom_devboard,63757374-6f6d-45f6-9465-76626f617264,rev?*%
%TF.SameCoordinates,Original*%
%TF.FileFunction,Copper,L1,Top*%
%TF.FilePolarity,Positive*%
%FSLAX46Y46*%
G04 Gerber Fmt 4.6, Leading zero omitted, Abs format (unit mm)*
G04 Created by KiCad (PCBNEW 10.0.0) date 2026-05-03 16:58:30*
%MOMM*%
%LPD*%
G01*
G04 APERTURE LIST*
G04 Aperture macros list*
%AMRoundRect*
0 Rectangle with rounded corners*
0 $1 Rounding radius*
0 $2 $3 $4 $5 $6 $7 $8 $9 X,Y pos of 4 corners*
0 Add a 4 corners polygon primitive as box body*
4,1,4,$2,$3,$4,$5,$6,$7,$8,$9,$2,$3,0*
0 Add four circle primitives for the rounded corners*
1,1,$1+$1,$2,$3*
1,1,$1+$1,$4,$5*
1,1,$1+$1,$6,$7*
1,1,$1+$1,$8,$9*
0 Add four rect primitives between the rounded corners*
20,1,$1+$1,$2,$3,$4,$5,0*
20,1,$1+$1,$4,$5,$6,$7,0*
20,1,$1+$1,$6,$7,$8,$9,0*
20,1,$1+$1,$8,$9,$2,$3,0*%
G04 Aperture macros list end*
%TA.AperFunction,SMDPad,CuDef*%
%ADD10RoundRect,0.140000X-0.140000X-0.170000X0.140000X-0.170000X0.140000X0.170000X-0.140000X0.170000X0*%
%TD*%
%TA.AperFunction,SMDPad,CuDef*%
%ADD11RoundRect,0.135000X-0.135000X-0.185000X0.135000X-0.185000X0.135000X0.185000X-0.135000X0.185000X0*%
%TD*%
%TA.AperFunction,SMDPad,CuDef*%
%ADD12RoundRect,0.200000X-0.200000X-0.800000X0.200000X-0.800000X0.200000X0.800000X-0.200000X0.800000X0*%
%TD*%
%TA.AperFunction,SMDPad,CuDef*%
%ADD13RoundRect,0.150000X0.150000X0.575000X-0.150000X0.575000X-0.150000X-0.575000X0.150000X-0.575000X0*%
%TD*%
%TA.AperFunction,SMDPad,CuDef*%
%ADD14RoundRect,0.075000X0.075000X0.650000X-0.075000X0.650000X-0.075000X-0.650000X0.075000X-0.650000X0*%
%TD*%
%TA.AperFunction,ComponentPad*%
%ADD15O,1.000000X2.100000*%
%TD*%
%TA.AperFunction,ComponentPad*%
%ADD16O,1.000000X1.600000*%
%TD*%
%TA.AperFunction,SMDPad,CuDef*%
%ADD17RoundRect,0.135000X0.135000X0.185000X-0.135000X0.185000X-0.135000X-0.185000X0.135000X-0.185000X0*%
%TD*%
%TA.AperFunction,SMDPad,CuDef*%
%ADD18RoundRect,0.050000X-0.387500X-0.050000X0.387500X-0.050000X0.387500X0.050000X-0.387500X0.050000X0*%
%TD*%
%TA.AperFunction,SMDPad,CuDef*%
%ADD19RoundRect,0.050000X-0.050000X-0.387500X0.050000X-0.387500X0.050000X0.387500X-0.050000X0.387500X0*%
%TD*%
%TA.AperFunction,HeatsinkPad*%
%ADD20R,3.200000X3.200000*%
%TD*%
%TA.AperFunction,SMDPad,CuDef*%
%ADD21RoundRect,0.250000X-0.450000X-0.350000X0.450000X-0.350000X0.450000X0.350000X-0.450000X0.350000X0*%
%TD*%
%TA.AperFunction,ComponentPad*%
%ADD22R,1.700000X1.700000*%
%TD*%
%TA.AperFunction,ComponentPad*%
%ADD23C,1.700000*%
%TD*%
%TA.AperFunction,SMDPad,CuDef*%
%ADD24RoundRect,0.135000X-0.185000X0.135000X-0.185000X-0.135000X0.185000X-0.135000X0.185000X0.135000X0*%
%TD*%
%TA.AperFunction,SMDPad,CuDef*%
%ADD25RoundRect,0.225000X-0.250000X0.225000X-0.250000X-0.225000X0.250000X-0.225000X0.250000X0.225000X0*%
%TD*%
%TA.AperFunction,SMDPad,CuDef*%
%ADD26RoundRect,0.225000X-0.225000X-0.250000X0.225000X-0.250000X0.225000X0.250000X-0.225000X0.250000X0*%
%TD*%
%TA.AperFunction,SMDPad,CuDef*%
%ADD27RoundRect,0.150000X0.150000X-0.587500X0.150000X0.587500X-0.150000X0.587500X-0.150000X-0.587500X0*%
%TD*%
%TA.AperFunction,SMDPad,CuDef*%
%ADD28RoundRect,0.162500X-0.650000X-0.162500X0.650000X-0.162500X0.650000X0.162500X-0.650000X0.162500X0*%
%TD*%
%TA.AperFunction,SMDPad,CuDef*%
%ADD29RoundRect,0.140000X0.140000X0.170000X-0.140000X0.170000X-0.140000X-0.170000X0.140000X-0.170000X0*%
%TD*%
%TA.AperFunction,ViaPad*%
%ADD30C,0.600000*%
%TD*%
%TA.AperFunction,Conductor*%
%ADD31C,0.200000*%
%TD*%
G04 APERTURE END LIST*
D10*
%TO.P,C11,1*%
%TO.N,+1V1*%
X102410000Y-113030000D03*
%TO.P,C11,2*%
%TO.N,GND*%
X103370000Y-113030000D03*
%TD*%
%TO.P,C17,1*%
%TO.N,+3V3*%
X103910000Y-89000000D03*
%TO.P,C17,2*%
%TO.N,GND*%
X104870000Y-89000000D03*
%TD*%
D11*
%TO.P,R3,1*%
%TO.N,USB_D+*%
X95250000Y-90980000D03*
%TO.P,R3,2*%
%TO.N,Net-(U1-USB_DM)*%
X96270000Y-90980000D03*
%TD*%
D10*
%TO.P,C7,1*%
%TO.N,+3V3*%
X101040000Y-86990000D03*
%TO.P,C7,2*%
%TO.N,GND*%
X102000000Y-86990000D03*
%TD*%
D12*
%TO.P,SW1,1,1_1*%
%TO.N,GND*%
X99300000Y-119500000D03*
%TO.P,SW1,2,2_2*%
%TO.N,Net-(R7-Pad2)*%
X103500000Y-119500000D03*
%TD*%
D10*
%TO.P,C4,1*%
%TO.N,+3V3*%
X99540000Y-112000000D03*
%TO.P,C4,2*%
%TO.N,GND*%
X100500000Y-112000000D03*
%TD*%
%TO.P,C5,1*%
%TO.N,+3V3*%
X99540000Y-113030000D03*
%TO.P,C5,2*%
%TO.N,GND*%
X100500000Y-113030000D03*
%TD*%
D11*
%TO.P,R4,1*%
%TO.N,USB_D-*%
X96620000Y-111130000D03*
%TO.P,R4,2*%
%TO.N,Net-(U1-USB_DP)*%
X97640000Y-111130000D03*
%TD*%
D13*
%TO.P,J1,A1,GND_A1*%
%TO.N,GND*%
X103250000Y-81045000D03*
%TO.P,J1,A4,VBUS_A4*%
%TO.N,VBUS*%
X102450000Y-81045000D03*
D14*
%TO.P,J1,A5,CC1_A5*%
%TO.N,Net-(J1-CC1)*%
X101250000Y-81045000D03*
%TO.P,J1,A6,D+_A6*%
%TO.N,USB_D+*%
X100250000Y-81045000D03*
%TO.P,J1,A7,D-_A7*%
%TO.N,USB_D-*%
X99750000Y-81045000D03*
%TO.P,J1,A8*%
%TO.N,N/C*%
X98750000Y-81045000D03*
D13*
%TO.P,J1,A9,VBUS_A9*%
%TO.N,VBUS*%
X97550000Y-81045000D03*
%TO.P,J1,A12,GND_A12*%
%TO.N,GND*%
X96750000Y-81045000D03*
%TO.P,J1,B1,GND_B1*%
X96750000Y-81045000D03*
%TO.P,J1,B4,VBUS_B4*%
%TO.N,VBUS*%
X97550000Y-81045000D03*
D14*
%TO.P,J1,B5,CC2_B5*%
%TO.N,Net-(J1-CC2)*%
X98250000Y-81045000D03*
%TO.P,J1,B6,D+_B6*%
%TO.N,USB_D+*%
X99250000Y-81045000D03*
%TO.P,J1,B7,D-_B7*%
%TO.N,USB_D-*%
X100750000Y-81045000D03*
%TO.P,J1,B8*%
%TO.N,N/C*%
X101750000Y-81045000D03*
D13*
%TO.P,J1,B9,VBUS_B9*%
%TO.N,VBUS*%
X102450000Y-81045000D03*
%TO.P,J1,B12,GND_B12*%
%TO.N,GND*%
X103250000Y-81045000D03*
D15*
%TO.P,J1,SH,SHIELD_SH*%
X104320000Y-80130000D03*
D16*
X104320000Y-75950000D03*
D15*
X95680000Y-80130000D03*
D16*
X95680000Y-75950000D03*
%TD*%
D17*
%TO.P,R6,1*%
%TO.N,QSPI_SS*%
X97640000Y-115110000D03*
%TO.P,R6,2*%
%TO.N,+3V3*%
X96620000Y-115110000D03*
%TD*%
D10*
%TO.P,C6,1*%
%TO.N,+3V3*%
X99540000Y-115000000D03*
%TO.P,C6,2*%
%TO.N,GND*%
X100500000Y-115000000D03*
%TD*%
%TO.P,C9,1*%
%TO.N,+3V3*%
X101040000Y-90930000D03*
%TO.P,C9,2*%
%TO.N,GND*%
X102000000Y-90930000D03*
%TD*%
%TO.P,C12,1*%
%TO.N,+1V1*%
X102410000Y-115000000D03*
%TO.P,C12,2*%
%TO.N,GND*%
X103370000Y-115000000D03*
%TD*%
D11*
%TO.P,R5,1*%
%TO.N,Net-(C16-Pad2)*%
X93990000Y-123000000D03*
%TO.P,R5,2*%
%TO.N,XOUT*%
X95010000Y-123000000D03*
%TD*%
%TO.P,R2,1*%
%TO.N,GND*%
X95250000Y-88990000D03*
%TO.P,R2,2*%
%TO.N,Net-(J1-CC2)*%
X96270000Y-88990000D03*
%TD*%
D18*
%TO.P,U1,1,IOVDD_1*%
%TO.N,+3V3*%
X96562500Y-102400000D03*
%TO.P,U1,2,GPIO0_2*%
%TO.N,GPIO0*%
X96562500Y-102800000D03*
%TO.P,U1,3,GPIO1_3*%
%TO.N,GPIO1*%
X96562500Y-103200000D03*
%TO.P,U1,4,GPIO2_4*%
%TO.N,GPIO2*%
X96562500Y-103600000D03*
%TO.P,U1,5,GPIO3_5*%
%TO.N,GPIO3*%
X96562500Y-104000000D03*
%TO.P,U1,6,GPIO4_6*%
%TO.N,GPIO4*%
X96562500Y-104400000D03*
%TO.P,U1,7,GPIO5_7*%
%TO.N,GPIO5*%
X96562500Y-104800000D03*
%TO.P,U1,8,GPIO6_8*%
%TO.N,GPIO6*%
X96562500Y-105200000D03*
%TO.P,U1,9,GPIO7_9*%
%TO.N,GPIO7*%
X96562500Y-105600000D03*
%TO.P,U1,10,IOVDD_10*%
%TO.N,+3V3*%
X96562500Y-106000000D03*
%TO.P,U1,11,GPIO8_11*%
%TO.N,GPIO8*%
X96562500Y-106400000D03*
%TO.P,U1,12,GPIO9_12*%
%TO.N,GPIO9*%
X96562500Y-106800000D03*
%TO.P,U1,13,GPIO10_13*%
%TO.N,GPIO10*%
X96562500Y-107200000D03*
%TO.P,U1,14,GPIO11_14*%
%TO.N,GPIO11*%
X96562500Y-107600000D03*
D19*
%TO.P,U1,15,GPIO12_15*%
%TO.N,GPIO12*%
X97400000Y-108437500D03*
%TO.P,U1,16,GPIO13_16*%
%TO.N,GPIO13*%
X97800000Y-108437500D03*
%TO.P,U1,17,GPIO14_17*%
%TO.N,GPIO14*%
X98200000Y-108437500D03*
%TO.P,U1,18,GPIO15_18*%
%TO.N,GPIO15*%
X98600000Y-108437500D03*
%TO.P,U1,19,TESTEN_19*%
%TO.N,GND*%
X99000000Y-108437500D03*
%TO.P,U1,20,XIN_20*%
%TO.N,XIN*%
X99400000Y-108437500D03*
%TO.P,U1,21,XOUT_21*%
%TO.N,XOUT*%
X99800000Y-108437500D03*
%TO.P,U1,22,IOVDD_22*%
%TO.N,+3V3*%
X100200000Y-108437500D03*
%TO.P,U1,23,DVDD_23*%
%TO.N,+1V1*%
X100600000Y-108437500D03*
%TO.P,U1,24,SWCLK_24*%
%TO.N,SWCLK*%
X101000000Y-108437500D03*
%TO.P,U1,25,SWDIO_25*%
%TO.N,SWD*%
X101400000Y-108437500D03*
%TO.P,U1,26,RUN_26*%
%TO.N,RUN*%
X101800000Y-108437500D03*
%TO.P,U1,27,GPIO16_27*%
%TO.N,GPIO16*%
X102200000Y-108437500D03*
%TO.P,U1,28,GPIO17_28*%
%TO.N,GPIO17*%
X102600000Y-108437500D03*
D18*
%TO.P,U1,29,GPIO18_29*%
%TO.N,GPIO18*%
X103437500Y-107600000D03*
%TO.P,U1,30,GPIO19_30*%
%TO.N,GPIO19*%
X103437500Y-107200000D03*
%TO.P,U1,31,GPIO20_31*%
%TO.N,GPIO20*%
X103437500Y-106800000D03*
%TO.P,U1,32,GPIO21_32*%
%TO.N,GPIO21*%
X103437500Y-106400000D03*
%TO.P,U1,33,IOVDD_33*%
%TO.N,+3V3*%
X103437500Y-106000000D03*
%TO.P,U1,34,GPIO22_34*%
%TO.N,GPIO22*%
X103437500Y-105600000D03*
%TO.P,U1,35,GPIO23_35*%
%TO.N,GPIO23*%
X103437500Y-105200000D03*
%TO.P,U1,36,GPIO24_36*%
%TO.N,GPIO24*%
X103437500Y-104800000D03*
%TO.P,U1,37,GPIO25_37*%
%TO.N,unconnected-(U1-GPIO25-Pad37)*%
X103437500Y-104400000D03*
%TO.P,U1,38,GPIO26/ADC0_38*%
%TO.N,GPIO26_ADC0*%
X103437500Y-104000000D03*
%TO.P,U1,39,GPIO27/ADC1_39*%
%TO.N,GPIO27_ADC1*%
X103437500Y-103600000D03*
%TO.P,U1,40,GPIO28/ADC2_40*%
%TO.N,GPIO28_ADC2*%
X103437500Y-103200000D03*
%TO.P,U1,41,GPIO29/ADC3_41*%
%TO.N,GPIO29_ADC3*%
X103437500Y-102800000D03*
%TO.P,U1,42,IOVDD_42*%
%TO.N,+3V3*%
X103437500Y-102400000D03*
D19*
%TO.P,U1,43,ADC_AVDD_43*%
X102600000Y-101562500D03*
%TO.P,U1,44,VREG_VIN_44*%
X102200000Y-101562500D03*
%TO.P,U1,45,VREG_VOUT_45*%
%TO.N,+1V1*%
X101800000Y-101562500D03*
%TO.P,U1,46,USB_DM_46*%
%TO.N,Net-(U1-USB_DM)*%
X101400000Y-101562500D03*
%TO.P,U1,47,USB_DP_47*%
%TO.N,Net-(U1-USB_DP)*%
X101000000Y-101562500D03*
%TO.P,U1,48,USB_VDD_48*%
%TO.N,+3V3*%
X100600000Y-101562500D03*
%TO.P,U1,49,IOVDD_49*%
X100200000Y-101562500D03*
%TO.P,U1,50,DVDD_50*%
%TO.N,+1V1*%
X99800000Y-101562500D03*
%TO.P,U1,51,QSPI_SD3_51*%
%TO.N,QSPI_SP3*%
X99400000Y-101562500D03*
%TO.P,U1,52,QSPI_SCLK_52*%
%TO.N,QSPI_SCLK*%
X99000000Y-101562500D03*
%TO.P,U1,53,QSPI_SD0_53*%
%TO.N,QSPI_SD0*%
X98600000Y-101562500D03*
%TO.P,U1,54,QSPI_SD2_54*%
%TO.N,QSPI_SP2*%
X98200000Y-101562500D03*
%TO.P,U1,55,QSPI_SD1_55*%
%TO.N,QSPI_SP1*%
X97800000Y-101562500D03*
%TO.P,U1,56,~{QSPI_SS}_56*%
%TO.N,QSPI_SS*%
X97400000Y-101562500D03*
D20*
%TO.P,U1,57,GND_57*%
%TO.N,GND*%
X100000000Y-105000000D03*
%TD*%
D21*
%TO.P,Y1,1,1_1*%
%TO.N,Net-(C16-Pad2)*%
X94900000Y-120350000D03*
%TO.P,Y1,2,G_2*%
%TO.N,GND*%
X97100000Y-120350000D03*
%TO.P,Y1,3,3_3*%
%TO.N,XIN*%
X97100000Y-118650000D03*
%TO.P,Y1,4,G_4*%
%TO.N,GND*%
X94900000Y-118650000D03*
%TD*%
D10*
%TO.P,C1,1*%
%TO.N,+3V3*%
X98170000Y-86990000D03*
%TO.P,C1,2*%
%TO.N,GND*%
X99130000Y-86990000D03*
%TD*%
D22*
%TO.P,J2,1,Pin_1_1*%
%TO.N,GPIO0*%
X91110000Y-75870000D03*
D23*
%TO.P,J2,2,Pin_2_2*%
%TO.N,GPIO1*%
X91110000Y-78410000D03*
%TO.P,J2,3,Pin_3_3*%
%TO.N,GND*%
X91110000Y-80950000D03*
%TO.P,J2,4,Pin_4_4*%
%TO.N,GPIO2*%
X91110000Y-83490000D03*
%TO.P,J2,5,Pin_5_5*%
%TO.N,GPIO3*%
X91110000Y-86030000D03*
%TO.P,J2,6,Pin_6_6*%
%TO.N,GPIO4*%
X91110000Y-88570000D03*
%TO.P,J2,7,Pin_7_7*%
%TO.N,GPIO5*%
X91110000Y-91110000D03*
%TO.P,J2,8,Pin_8_8*%
%TO.N,GND*%
X91110000Y-93650000D03*
%TO.P,J2,9,Pin_9_9*%
%TO.N,GPIO6*%
X91110000Y-96190000D03*
%TO.P,J2,10,Pin_10_10*%
%TO.N,GPIO7*%
X91110000Y-98730000D03*
%TO.P,J2,11,Pin_11_11*%
%TO.N,GPIO8*%
X91110000Y-101270000D03*
%TO.P,J2,12,Pin_12_12*%
%TO.N,GPIO9*%
X91110000Y-103810000D03*
%TO.P,J2,13,Pin_13_13*%
%TO.N,GND*%
X91110000Y-106350000D03*
%TO.P,J2,14,Pin_14_14*%
%TO.N,GPIO10*%
X91110000Y-108890000D03*
%TO.P,J2,15,Pin_15_15*%
%TO.N,GPIO11*%
X91110000Y-111430000D03*
%TO.P,J2,16,Pin_16_16*%
%TO.N,GPIO12*%
X91110000Y-113970000D03*
%TO.P,J2,17,Pin_17_17*%
%TO.N,GPIO13*%
X91110000Y-116510000D03*
%TO.P,J2,18,Pin_18_18*%
%TO.N,GND*%
X91110000Y-119050000D03*
%TO.P,J2,19,Pin_19_19*%
%TO.N,GPIO14*%
X91110000Y-121590000D03*
%TO.P,J2,20,Pin_20_20*%
%TO.N,GPIO15*%
X91110000Y-124130000D03*
%TD*%
D24*
%TO.P,R7,1*%
%TO.N,QSPI_SS*%
X105000000Y-116990000D03*
%TO.P,R7,2*%
%TO.N,Net-(R7-Pad2)*%
X105000000Y-118010000D03*
%TD*%
D10*
%TO.P,C2,1*%
%TO.N,+3V3*%
X98170000Y-88960000D03*
%TO.P,C2,2*%
%TO.N,GND*%
X99130000Y-88960000D03*
%TD*%
D22*
%TO.P,J3,1,Pin_1_1*%
%TO.N,VBUS*%
X108890000Y-75870000D03*
D23*
%TO.P,J3,2,Pin_2_2*%
%TO.N,GPIO29_ADC3*%
X108890000Y-78410000D03*
%TO.P,J3,3,Pin_3_3*%
%TO.N,GND*%
X108890000Y-80950000D03*
%TO.P,J3,4,Pin_4_4*%
%TO.N,GPIO28_ADC2*%
X108890000Y-83490000D03*
%TO.P,J3,5,Pin_5_5*%
%TO.N,+3V3*%
X108890000Y-86030000D03*
%TO.P,J3,6,Pin_6_6*%
%TO.N,GPIO27_ADC1*%
X108890000Y-88570000D03*
%TO.P,J3,7,Pin_7_7*%
%TO.N,GPIO26_ADC0*%
X108890000Y-91110000D03*
%TO.P,J3,8,Pin_8_8*%
%TO.N,GND*%
X108890000Y-93650000D03*
%TO.P,J3,9,Pin_9_9*%
%TO.N,GPIO24*%
X108890000Y-96190000D03*
%TO.P,J3,10,Pin_10_10*%
%TO.N,GPIO23*%
X108890000Y-98730000D03*
%TO.P,J3,11,Pin_11_11*%
%TO.N,RUN*%
X108890000Y-101270000D03*
%TO.P,J3,12,Pin_12_12*%
%TO.N,GPIO22*%
X108890000Y-103810000D03*
%TO.P,J3,13,Pin_13_13*%
%TO.N,GND*%
X108890000Y-106350000D03*
%TO.P,J3,14,Pin_14_14*%
%TO.N,GPIO21*%
X108890000Y-108890000D03*
%TO.P,J3,15,Pin_15_15*%
%TO.N,GPIO20*%
X108890000Y-111430000D03*
%TO.P,J3,16,Pin_16_16*%
%TO.N,GPIO19*%
X108890000Y-113970000D03*
%TO.P,J3,17,Pin_17_17*%
%TO.N,GPIO18*%
X108890000Y-116510000D03*
%TO.P,J3,18,Pin_18_18*%
%TO.N,GND*%
X108890000Y-119050000D03*
%TO.P,J3,19,Pin_19_19*%
%TO.N,GPIO17*%
X108890000Y-121590000D03*
%TO.P,J3,20,Pin_20_20*%
%TO.N,GPIO16*%
X108890000Y-124130000D03*
%TD*%
D10*
%TO.P,C15,1*%
%TO.N,GND*%
X103910000Y-85060000D03*
%TO.P,C15,2*%
%TO.N,XIN*%
X104870000Y-85060000D03*
%TD*%
D25*
%TO.P,C13,1*%
%TO.N,VBUS*%
X95000000Y-83725000D03*
%TO.P,C13,2*%
%TO.N,GND*%
X95000000Y-85275000D03*
%TD*%
D26*
%TO.P,C14,1*%
%TO.N,+3V3*%
X96225000Y-99500000D03*
%TO.P,C14,2*%
%TO.N,GND*%
X97775000Y-99500000D03*
%TD*%
D22*
%TO.P,J4,1,Pin_1_1*%
%TO.N,SWCLK*%
X97460000Y-123890000D03*
D23*
%TO.P,J4,2,Pin_2_2*%
%TO.N,GND*%
X100000000Y-123890000D03*
%TO.P,J4,3,Pin_3_3*%
%TO.N,SWD*%
X102540000Y-123890000D03*
%TD*%
D11*
%TO.P,R1,1*%
%TO.N,GND*%
X95250000Y-87000000D03*
%TO.P,R1,2*%
%TO.N,Net-(J1-CC1)*%
X96270000Y-87000000D03*
%TD*%
D27*
%TO.P,U4,1,GND_1*%
%TO.N,GND*%
X98550000Y-85437500D03*
%TO.P,U4,2,VO_2*%
%TO.N,+3V3*%
X100450000Y-85437500D03*
%TO.P,U4,3,VI_3*%
%TO.N,VBUS*%
X99500000Y-83562500D03*
%TD*%
D28*
%TO.P,U3,1,~{CS}_1*%
%TO.N,QSPI_SS*%
X96412500Y-93595000D03*
%TO.P,U3,2,DO/IO_{1}_2*%
%TO.N,QSPI_SP1*%
X96412500Y-94865000D03*
%TO.P,U3,3,~{WP}/IO_{2}_3*%
%TO.N,QSPI_SP2*%
X96412500Y-96135000D03*
%TO.P,U3,4,GND_4*%
%TO.N,GND*%
X96412500Y-97405000D03*
%TO.P,U3,5,DI/IO_{0}_5*%
%TO.N,QSPI_SD0*%
X103587500Y-97405000D03*
%TO.P,U3,6,CLK_6*%
%TO.N,QSPI_SCLK*%
X103587500Y-96135000D03*
%TO.P,U3,7,~{HOLD}/~{RESET}/IO_{3}_7*%
%TO.N,QSPI_SP3*%
X103587500Y-94865000D03*
%TO.P,U3,8,VCC_8*%
%TO.N,+3V3*%
X103587500Y-93595000D03*
%TD*%
D10*
%TO.P,C3,1*%
%TO.N,+3V3*%
X98170000Y-90930000D03*
%TO.P,C3,2*%
%TO.N,GND*%
X99130000Y-90930000D03*
%TD*%
%TO.P,C10,1*%
%TO.N,+1V1*%
X102410000Y-112000000D03*
%TO.P,C10,2*%
%TO.N,GND*%
X103370000Y-112000000D03*
%TD*%
D29*
%TO.P,C16,1*%
%TO.N,GND*%
X95480000Y-116500000D03*
%TO.P,C16,2*%
%TO.N,Net-(C16-Pad2)*%
X94520000Y-116500000D03*
%TD*%
D10*
%TO.P,C8,1*%
%TO.N,+3V3*%
X101040000Y-88960000D03*
%TO.P,C8,2*%
%TO.N,GND*%
X102000000Y-88960000D03*
%TD*%
D30*
%TO.N,+1V1*%
X102100000Y-104000000D03*
X100500000Y-110000000D03*
X101500000Y-111100000D03*
%TO.N,GND*%
X104850000Y-89000000D03*
X96500000Y-86000000D03*
X95068627Y-90000000D03*
X96503750Y-97496250D03*
X103180000Y-88000000D03*
X97900000Y-99665684D03*
X99130000Y-86990000D03*
X106600000Y-89500000D03*
X99500000Y-104500000D03*
X94500000Y-95500000D03*
X98550000Y-85500000D03*
X99327583Y-107167278D03*
X100500000Y-116390000D03*
X94500000Y-93500000D03*
X101000000Y-117590000D03*
X103500000Y-116000000D03*
X103910000Y-87030000D03*
X97100000Y-120350000D03*
X94900000Y-118650000D03*
X93592843Y-83950049D03*
X102000000Y-86990000D03*
X106600000Y-87471472D03*
X99085000Y-88915000D03*
X103910000Y-85060000D03*
%TO.N,+3V3*%
X107500000Y-106500000D03*
X102000000Y-97500000D03*
X100000000Y-88000000D03*
X96000000Y-98500000D03*
X100500000Y-100500000D03*
X102000000Y-100500000D03*
X104322061Y-100331493D03*
X98190000Y-86990000D03*
X104000000Y-90000000D03*
X101040000Y-90000000D03*
%TO.N,USB_D-*%
X95000000Y-112500000D03*
X99500000Y-79600000D03*
%TO.N,Net-(U1-USB_DP)*%
X100979964Y-102390540D03*
X96930197Y-111930197D03*
%TO.N,VBUS*%
X98516489Y-84016489D03*
X96500000Y-83000000D03*
%TO.N,Net-(J1-CC1)*%
X96000000Y-88000000D03*
X98770000Y-88000000D03*
%TO.N,QSPI_SS*%
X98198082Y-102500000D03*
X100000000Y-98701625D03*
X98500000Y-116990000D03*
%TO.N,GPIO12*%
X93000000Y-112500000D03*
X94651472Y-111000000D03*
%TO.N,GPIO13*%
X97500000Y-107500000D03*
X96500000Y-109000000D03*
%TO.N,GPIO14*%
X94075735Y-114575735D03*
X98341869Y-107539844D03*
%TO.N,XIN*%
X98000000Y-110000000D03*
X102500000Y-102500000D03*
X97000000Y-116500000D03*
X101845151Y-99643187D03*
%TO.N,SWCLK*%
X100181486Y-111213714D03*
%TO.N,SWD*%
X101745200Y-110000000D03*
%TO.N,RUN*%
X106925735Y-104925735D03*
X103488235Y-111011765D03*
%TO.N,QSPI_SP3*%
X99795743Y-102900000D03*
X102000000Y-95000000D03*
%TO.N,QSPI_SCLK*%
X97899998Y-105000000D03*
X102000000Y-96000000D03*
%TO.N,QSPI_SD0*%
X99240129Y-100214491D03*
X101709205Y-98854820D03*
%TO.N,QSPI_SP1*%
X99600000Y-99500000D03*
X97600001Y-100645229D03*
%TD*%
%TO.N,+1V1*%
D31*
X100395743Y-103100000D02*
X100395743Y-102651471D01*
X102100000Y-104000000D02*
X102100000Y-102948529D01*
X100395743Y-102651471D02*
X100044272Y-102300000D01*
X102410000Y-114410000D02*
X101080000Y-113080000D01*
X101800000Y-102648529D02*
X101800000Y-101562500D01*
X102410000Y-115000000D02*
X102410000Y-113030000D01*
X100600000Y-109900000D02*
X100600000Y-108437500D01*
X100044272Y-102300000D02*
X100003640Y-102300000D01*
X102100000Y-102948529D02*
X101800000Y-102648529D01*
X100500000Y-110000000D02*
X100600000Y-109900000D01*
X99800000Y-102096360D02*
X99800000Y-101562500D01*
X101080000Y-112920000D02*
X101500000Y-112500000D01*
X101080000Y-113080000D02*
X101080000Y-112920000D01*
X100003640Y-102300000D02*
X99800000Y-102096360D01*
X102100000Y-104000000D02*
X102100000Y-103100000D01*
X101500000Y-112500000D02*
X101500000Y-111100000D01*
X102410000Y-112000000D02*
X102410000Y-113030000D01*
X102410000Y-115000000D02*
X102410000Y-114410000D01*
X102100000Y-103100000D02*
X100395743Y-103100000D01*
%TO.N,GND*%
X103910000Y-87270000D02*
X103180000Y-88000000D01*
X99327583Y-107167278D02*
X99000000Y-107494861D01*
X98550000Y-85437500D02*
X98550000Y-85500000D01*
X101390000Y-91540000D02*
X102000000Y-90930000D01*
X99327583Y-105672417D02*
X99327583Y-107167278D01*
X98450000Y-120350000D02*
X99300000Y-119500000D01*
X94900000Y-118650000D02*
X94900000Y-117080000D01*
X94500000Y-95500000D02*
X94500000Y-93500000D01*
X100000000Y-105000000D02*
X99500000Y-104500000D01*
X94900000Y-117080000D02*
X95480000Y-116500000D01*
X93675049Y-83950049D02*
X95000000Y-85275000D01*
X103250000Y-81045000D02*
X103405000Y-81045000D01*
X94520000Y-118270000D02*
X94900000Y-118650000D01*
X95680000Y-80130000D02*
X95835000Y-80130000D01*
X99300000Y-119500000D02*
X101000000Y-117800000D01*
X97775000Y-99500000D02*
X97775000Y-98767500D01*
X106600000Y-89500000D02*
X106600000Y-87471472D01*
X95000000Y-85275000D02*
X95000000Y-86750000D01*
X97100000Y-120990000D02*
X97100000Y-120350000D01*
X97100000Y-120350000D02*
X98450000Y-120350000D01*
X97900000Y-99665684D02*
X97900000Y-99625000D01*
X95250000Y-87000000D02*
X95250000Y-88990000D01*
X98550000Y-85437500D02*
X98550000Y-86410000D01*
X95835000Y-80130000D02*
X96750000Y-81045000D01*
X100000000Y-105000000D02*
X99327583Y-105672417D01*
X93592843Y-83950049D02*
X93675049Y-83950049D01*
X95250000Y-89818627D02*
X95068627Y-90000000D01*
X95250000Y-87000000D02*
X96250000Y-86000000D01*
X100000000Y-123890000D02*
X97100000Y-120990000D01*
X100890000Y-116000000D02*
X101500000Y-116000000D01*
X95000000Y-86750000D02*
X95250000Y-87000000D01*
X100500000Y-116390000D02*
X100890000Y-116000000D01*
X97900000Y-99625000D02*
X97775000Y-99500000D01*
X103500000Y-116000000D02*
X103370000Y-115870000D01*
X102000000Y-88960000D02*
X102000000Y-90930000D01*
X99740000Y-91540000D02*
X101390000Y-91540000D01*
X101000000Y-117800000D02*
X101000000Y-117590000D01*
X103250000Y-84400000D02*
X103910000Y-85060000D01*
X102000000Y-86990000D02*
X102000000Y-88960000D01*
X100500000Y-115000000D02*
X101500000Y-116000000D01*
X99130000Y-90930000D02*
X99740000Y-91540000D01*
X100500000Y-115000000D02*
X100500000Y-113030000D01*
X100500000Y-113030000D02*
X100500000Y-112000000D01*
X99085000Y-88915000D02*
X99130000Y-88960000D01*
X98550000Y-86410000D02*
X99130000Y-86990000D01*
X103250000Y-81045000D02*
X103250000Y-84400000D01*
X103910000Y-87030000D02*
X103910000Y-87270000D01*
X99000000Y-107494861D02*
X99000000Y-108437500D01*
X101500000Y-116000000D02*
X103500000Y-116000000D01*
X99130000Y-90930000D02*
X99130000Y-88960000D01*
X96250000Y-86000000D02*
X96500000Y-86000000D01*
X95250000Y-88990000D02*
X95250000Y-89818627D01*
X103370000Y-112000000D02*
X103370000Y-115000000D01*
X103405000Y-81045000D02*
X104320000Y-80130000D01*
X103370000Y-115870000D02*
X103370000Y-115000000D01*
X97775000Y-98767500D02*
X96412500Y-97405000D01*
%TO.N,+3V3*%
X100600000Y-101562500D02*
X100600000Y-100600000D01*
X102200000Y-100700000D02*
X102200000Y-101562500D01*
X96620000Y-115110000D02*
X97240000Y-114490000D01*
X100450000Y-85437500D02*
X100450000Y-87550000D01*
X98170000Y-86990000D02*
X98170000Y-88960000D01*
X100102718Y-107806358D02*
X100200000Y-107903640D01*
X102046708Y-107318977D02*
X100400000Y-107318977D01*
X102500000Y-106900000D02*
X102300000Y-106900000D01*
X99540000Y-115000000D02*
X99540000Y-113030000D01*
X96000000Y-98500000D02*
X96000000Y-99275000D01*
X100200000Y-109302731D02*
X100200000Y-108437500D01*
X100600000Y-100600000D02*
X100500000Y-100500000D01*
X104322061Y-100331493D02*
X103653554Y-101000000D01*
X100200000Y-101562500D02*
X100600000Y-101562500D01*
X103653554Y-101000000D02*
X103162500Y-101000000D01*
X97240000Y-114490000D02*
X99030000Y-114490000D01*
X99540000Y-111060000D02*
X99540000Y-113030000D01*
X103437500Y-106000000D02*
X102903640Y-106000000D01*
X102600000Y-101562500D02*
X102200000Y-101562500D01*
X103587500Y-93595000D02*
X104399999Y-93595000D01*
X102300000Y-106900000D02*
X102300000Y-107065685D01*
X102740000Y-96760000D02*
X102000000Y-97500000D01*
X96000000Y-99275000D02*
X96225000Y-99500000D01*
X104433576Y-96760000D02*
X102740000Y-96760000D01*
X100450000Y-87550000D02*
X100000000Y-88000000D01*
X102300000Y-107065685D02*
X102046708Y-107318977D01*
X103910000Y-89910000D02*
X104000000Y-90000000D01*
X97300000Y-102603640D02*
X97300000Y-105796360D01*
X101040000Y-88960000D02*
X101040000Y-86990000D01*
X103910000Y-89000000D02*
X103910000Y-89910000D01*
X101040000Y-90930000D02*
X101040000Y-88960000D01*
X104399999Y-93595000D02*
X104700000Y-93895001D01*
X100400000Y-107318977D02*
X100400000Y-107509076D01*
X100200000Y-107903640D02*
X100200000Y-108437500D01*
X96562500Y-102400000D02*
X97096360Y-102400000D01*
X99400000Y-109975000D02*
X99527732Y-109975000D01*
X101040000Y-86027500D02*
X100450000Y-85437500D01*
X96600000Y-99875000D02*
X96600000Y-102362500D01*
X98170000Y-88960000D02*
X98170000Y-90930000D01*
X103437500Y-106000000D02*
X107000000Y-106000000D01*
X103437500Y-102400000D02*
X102600000Y-101562500D01*
X97096360Y-106000000D02*
X96562500Y-106000000D01*
X96225000Y-99500000D02*
X96600000Y-99875000D01*
X96600000Y-102362500D02*
X96562500Y-102400000D01*
X104700000Y-96493576D02*
X104433576Y-96760000D01*
X99030000Y-114490000D02*
X99540000Y-115000000D01*
X100400000Y-107509076D02*
X100102718Y-107806358D01*
X99527732Y-109975000D02*
X100200000Y-109302731D01*
X104700000Y-93895001D02*
X104700000Y-96493576D01*
X99540000Y-110525686D02*
X99400000Y-110385686D01*
X97300000Y-105796360D02*
X97096360Y-106000000D01*
X101040000Y-90000000D02*
X101040000Y-90930000D01*
X101040000Y-86990000D02*
X101040000Y-86027500D01*
X103162500Y-101000000D02*
X102600000Y-101562500D01*
X97096360Y-102400000D02*
X97300000Y-102603640D01*
X107000000Y-106000000D02*
X107500000Y-106500000D01*
X103587500Y-93595000D02*
X104000000Y-93182500D01*
X102000000Y-100500000D02*
X102200000Y-100700000D01*
X99540000Y-111060000D02*
X99540000Y-110525686D01*
X99400000Y-110385686D02*
X99400000Y-109975000D01*
X102500000Y-106403640D02*
X102500000Y-106900000D01*
X102903640Y-106000000D02*
X102500000Y-106403640D01*
X104000000Y-93182500D02*
X104000000Y-90000000D01*
%TO.N,USB_D+*%
X95250000Y-90980000D02*
X97590000Y-88640000D01*
X97590000Y-88640000D02*
X97590000Y-84094448D01*
X100250000Y-81802410D02*
X100250000Y-81045000D01*
X99982410Y-82070000D02*
X100250000Y-81802410D01*
X99250000Y-81802410D02*
X99517590Y-82070000D01*
X99517590Y-82070000D02*
X99982410Y-82070000D01*
X99250000Y-82434448D02*
X99250000Y-81045000D01*
X99250000Y-81045000D02*
X99250000Y-81802410D01*
X97590000Y-84094448D02*
X99250000Y-82434448D01*
%TO.N,Net-(U1-USB_DM)*%
X96270000Y-90980000D02*
X100600000Y-95310000D01*
X100600000Y-99751470D02*
X101400000Y-100551470D01*
X101400000Y-100551470D02*
X101400000Y-101562500D01*
X100600000Y-95310000D02*
X100600000Y-99751470D01*
%TO.N,Net-(R7-Pad2)*%
X103500000Y-119500000D02*
X104990000Y-118010000D01*
X104990000Y-118010000D02*
X105000000Y-118010000D01*
%TO.N,USB_D-*%
X99750000Y-80287590D02*
X100017590Y-80020000D01*
X99750000Y-81045000D02*
X99750000Y-80287590D01*
X99750000Y-81045000D02*
X99750000Y-79850000D01*
X100482410Y-80020000D02*
X100750000Y-80287590D01*
X100017590Y-80020000D02*
X100482410Y-80020000D01*
X96370000Y-111130000D02*
X96620000Y-111130000D01*
X100750000Y-80287590D02*
X100750000Y-81045000D01*
X95000000Y-112500000D02*
X96370000Y-111130000D01*
X99750000Y-79850000D02*
X99500000Y-79600000D01*
%TO.N,Net-(U1-USB_DP)*%
X97640000Y-111130000D02*
X97640000Y-111220394D01*
X101000000Y-102370504D02*
X101000000Y-101562500D01*
X97640000Y-111220394D02*
X96930197Y-111930197D01*
X100979964Y-102390540D02*
X101000000Y-102370504D01*
%TO.N,VBUS*%
X102450000Y-80320001D02*
X102450000Y-81045000D01*
X96500000Y-82819999D02*
X96500000Y-83000000D01*
X102215000Y-80810000D02*
X102215000Y-79320406D01*
X99037590Y-79000000D02*
X101129999Y-79000000D01*
X95000000Y-83725000D02*
X95775000Y-83725000D01*
X97550000Y-80487590D02*
X99037590Y-79000000D01*
X99046011Y-84016489D02*
X99500000Y-83562500D01*
X102215000Y-79320406D02*
X102610406Y-78925000D01*
X97550000Y-81045000D02*
X97550000Y-81769999D01*
X103169594Y-78925000D02*
X106224594Y-75870000D01*
X102450000Y-81045000D02*
X102215000Y-80810000D01*
X95775000Y-83725000D02*
X96500000Y-83000000D01*
X102610406Y-78925000D02*
X103169594Y-78925000D01*
X97550000Y-81769999D02*
X96500000Y-82819999D01*
X97550000Y-81045000D02*
X97550000Y-80487590D01*
X98516489Y-84016489D02*
X99046011Y-84016489D01*
X102450000Y-81045000D02*
X102580000Y-81175000D01*
X106224594Y-75870000D02*
X108890000Y-75870000D01*
X101129999Y-79000000D02*
X102450000Y-80320001D01*
%TO.N,Net-(J1-CC1)*%
X99850000Y-84659448D02*
X101250000Y-83259448D01*
X96270000Y-87730000D02*
X96270000Y-87000000D01*
X98770000Y-88000000D02*
X99056134Y-88000000D01*
X99850000Y-87206134D02*
X99850000Y-84659448D01*
X99056134Y-88000000D02*
X99850000Y-87206134D01*
X101250000Y-83259448D02*
X101250000Y-81045000D01*
X96000000Y-88000000D02*
X96270000Y-87730000D01*
%TO.N,Net-(J1-CC2)*%
X96270000Y-88990000D02*
X97190000Y-88070000D01*
X97190000Y-82829999D02*
X98250000Y-81769999D01*
X98250000Y-81769999D02*
X98250000Y-81045000D01*
X97190000Y-88070000D02*
X97190000Y-82829999D01*
%TO.N,QSPI_SS*%
X100000000Y-98701625D02*
X100000000Y-98282842D01*
X99800000Y-97578630D02*
X97925000Y-95703629D01*
X97603640Y-102300000D02*
X97400000Y-102096360D01*
X97998082Y-102300000D02*
X97603640Y-102300000D01*
X97640000Y-116990000D02*
X97640000Y-115110000D01*
X97258576Y-94240000D02*
X96412500Y-94240000D01*
X97525000Y-94506424D02*
X97258576Y-94240000D01*
X97925000Y-95610738D02*
X97525000Y-95210738D01*
X97400000Y-102096360D02*
X97400000Y-101562500D01*
X98198082Y-102500000D02*
X97998082Y-102300000D01*
X97925000Y-95703629D02*
X97925000Y-95610738D01*
X100000000Y-98282842D02*
X99800000Y-98082842D01*
X105000000Y-116990000D02*
X98500000Y-116990000D01*
X99800000Y-98082842D02*
X99800000Y-97578630D01*
X96412500Y-94240000D02*
X96412500Y-93595000D01*
X97525000Y-95210738D02*
X97525000Y-94506424D01*
X100000000Y-98701625D02*
X100108579Y-98593046D01*
X98500000Y-116990000D02*
X97640000Y-116990000D01*
%TO.N,Net-(C16-Pad2)*%
X94900000Y-122090000D02*
X94900000Y-120350000D01*
X93900000Y-117120000D02*
X93900000Y-119350000D01*
X93900000Y-119350000D02*
X94900000Y-120350000D01*
X94520000Y-116500000D02*
X93900000Y-117120000D01*
X93990000Y-123000000D02*
X94900000Y-122090000D01*
%TO.N,XOUT*%
X99000000Y-109702730D02*
X99127730Y-109575000D01*
X96050000Y-116866134D02*
X96060000Y-116856134D01*
X95010000Y-123000000D02*
X96050000Y-121960000D01*
X99127730Y-109575000D02*
X99362046Y-109575000D01*
X96050000Y-116133866D02*
X96050000Y-113658924D01*
X98500000Y-111000000D02*
X99000000Y-110500000D01*
X98500000Y-111208924D02*
X98500000Y-111000000D01*
X96050000Y-121960000D02*
X96050000Y-116866134D01*
X96060000Y-116143866D02*
X96050000Y-116133866D01*
X96060000Y-116856134D02*
X96060000Y-116143866D01*
X99362046Y-109575000D02*
X99800000Y-109137046D01*
X96050000Y-113658924D02*
X98500000Y-111208924D01*
X99800000Y-109137046D02*
X99800000Y-108437500D01*
X99000000Y-110500000D02*
X99000000Y-109702730D01*
%TO.N,GPIO0*%
X92992843Y-84241471D02*
X92992843Y-77752843D01*
X94100000Y-87034314D02*
X94100000Y-85348628D01*
X95300000Y-100800000D02*
X95300000Y-92102944D01*
X95825000Y-102596360D02*
X96028640Y-102800000D01*
X94468627Y-87402941D02*
X94100000Y-87034314D01*
X96000000Y-101500000D02*
X95300000Y-100800000D01*
X96000000Y-101500000D02*
X95825000Y-101675000D01*
X92992843Y-77752843D02*
X91110000Y-75870000D01*
X95825000Y-101675000D02*
X95825000Y-102596360D01*
X95300000Y-92102944D02*
X94468627Y-91271571D01*
X94100000Y-85348628D02*
X92992843Y-84241471D01*
X96028640Y-102800000D02*
X96562500Y-102800000D01*
X94468627Y-91271571D02*
X94468627Y-87402941D01*
%TO.N,GPIO1*%
X94068627Y-87568627D02*
X93700000Y-87200000D01*
X94400000Y-91768629D02*
X94132841Y-91501471D01*
X94660000Y-101071558D02*
X94660000Y-99561987D01*
X94132841Y-91501471D02*
X94004412Y-91501471D01*
X96562500Y-103200000D02*
X95665686Y-103200000D01*
X95060000Y-103100000D02*
X95060001Y-102173857D01*
X93860000Y-95050912D02*
X93729088Y-94920000D01*
X93700000Y-85514314D02*
X92592843Y-84407157D01*
X94900000Y-101311558D02*
X94660000Y-101071558D01*
X93860000Y-93008627D02*
X94400000Y-92468627D01*
X94660000Y-96911571D02*
X93860000Y-96111570D01*
X94700002Y-99521984D02*
X94700002Y-99159249D01*
X92592843Y-79892843D02*
X91110000Y-78410000D01*
X92592843Y-84407157D02*
X92592843Y-79892843D01*
X94400000Y-92468627D02*
X94400000Y-91768629D01*
X94660000Y-99119247D02*
X94660000Y-96911571D01*
X95665686Y-103200000D02*
X95565685Y-103100000D01*
X94700002Y-99159249D02*
X94660000Y-99119247D01*
X93700000Y-87200000D02*
X93700000Y-85514314D01*
X93860000Y-96111570D02*
X93860000Y-95050912D01*
X93860000Y-94789087D02*
X93860000Y-93008627D01*
X95565685Y-103100000D02*
X95060000Y-103100000D01*
X94068627Y-91437256D02*
X94068627Y-87568627D01*
X95060001Y-102173857D02*
X94900000Y-102013855D01*
X94900000Y-102013855D02*
X94900000Y-101311558D01*
X93729088Y-94920000D02*
X93860000Y-94789087D01*
X94004412Y-91501471D02*
X94068627Y-91437256D01*
X94660000Y-99561987D02*
X94700002Y-99521984D01*
%TO.N,GPIO2*%
X93460000Y-92842942D02*
X93460000Y-94623402D01*
X94300002Y-99356299D02*
X94260000Y-99396301D01*
X94660000Y-103400198D02*
X94759802Y-103500000D01*
X93460000Y-96277256D02*
X94260000Y-97077257D01*
X93300000Y-91602942D02*
X93598529Y-91901471D01*
X94500000Y-101477244D02*
X94500000Y-102179540D01*
X94260000Y-97077257D02*
X94260000Y-99284933D01*
X93967156Y-91901471D02*
X94000000Y-91934315D01*
X94660001Y-102339542D02*
X94660000Y-103400198D01*
X94300002Y-99324935D02*
X94300002Y-99356299D01*
X93300000Y-85680000D02*
X93300000Y-91602942D01*
X93460000Y-95216597D02*
X93460000Y-96277256D01*
X94000000Y-92302942D02*
X93460000Y-92842942D01*
X94000000Y-91934315D02*
X94000000Y-92302942D01*
X95500000Y-103600000D02*
X96562500Y-103600000D01*
X93460000Y-94623402D02*
X93163403Y-94919999D01*
X93163403Y-94919999D02*
X93460000Y-95216597D01*
X94260000Y-99284933D02*
X94300002Y-99324935D01*
X94759802Y-103500000D02*
X95400000Y-103500000D01*
X94260000Y-101237244D02*
X94500000Y-101477244D01*
X95400000Y-103500000D02*
X95500000Y-103600000D01*
X94260000Y-99396301D02*
X94260000Y-101237244D01*
X94500000Y-102179540D02*
X94660001Y-102339542D01*
X93598529Y-91901471D02*
X93967156Y-91901471D01*
X91110000Y-83490000D02*
X93300000Y-85680000D01*
%TO.N,GPIO3*%
X93060000Y-94457716D02*
X93060000Y-92842282D01*
X93060000Y-95382282D02*
X92597717Y-94919999D01*
X93860000Y-101402931D02*
X93860000Y-97242942D01*
X96562500Y-104000000D02*
X94694116Y-104000000D01*
X93060000Y-96442942D02*
X93060000Y-95382282D01*
X94260000Y-103565884D02*
X94260001Y-102505227D01*
X94099999Y-101642930D02*
X93860000Y-101402931D01*
X93060000Y-92842282D02*
X92608859Y-92391141D01*
X92900000Y-87820000D02*
X91110000Y-86030000D01*
X92608859Y-92391141D02*
X92900000Y-92099999D01*
X94260001Y-102505227D02*
X94100000Y-102345226D01*
X93860000Y-97242942D02*
X93060000Y-96442942D01*
X92900000Y-92099999D02*
X92900000Y-87820000D01*
X94694116Y-104000000D02*
X94260000Y-103565884D01*
X94100000Y-102345226D02*
X94099999Y-101642930D01*
X92597717Y-94919999D02*
X93060000Y-94457716D01*
%TO.N,GPIO4*%
X93460000Y-97408628D02*
X92660000Y-96608628D01*
X95531582Y-104400000D02*
X95131582Y-104800000D01*
X93700000Y-102510912D02*
X93699999Y-101808616D01*
X96562500Y-104400000D02*
X95531582Y-104400000D01*
X94928430Y-104800000D02*
X93860000Y-103731570D01*
X92500000Y-89960000D02*
X91110000Y-88570000D01*
X92660000Y-95547968D02*
X92032032Y-94920000D01*
X92660000Y-93007968D02*
X92043173Y-92391141D01*
X93699999Y-101808616D02*
X93460000Y-101568617D01*
X95131582Y-104800000D02*
X94928430Y-104800000D01*
X92500000Y-91934314D02*
X92500000Y-89960000D01*
X93860000Y-103731570D02*
X93860001Y-102670913D01*
X92032032Y-94920000D02*
X92660000Y-94292031D01*
X92660000Y-94292031D02*
X92660000Y-93007968D01*
X92043173Y-92391141D02*
X92500000Y-91934314D01*
X93860001Y-102670913D02*
X93700000Y-102510912D01*
X93460000Y-101568617D02*
X93460000Y-97408628D01*
X92660000Y-96608628D02*
X92660000Y-95547968D01*
%TO.N,GPIO5*%
X91000000Y-92500000D02*
X91000000Y-91220000D01*
X93060000Y-101734303D02*
X93060000Y-97574314D01*
X93060000Y-97574314D02*
X92206016Y-96720330D01*
X92260000Y-96666346D02*
X92260000Y-95713654D01*
X93460000Y-103897256D02*
X93460001Y-102836599D01*
X91000000Y-94800000D02*
X91586346Y-94800000D01*
X91586346Y-92500000D02*
X91000000Y-92500000D01*
X93300000Y-102676598D02*
X93300000Y-101974302D01*
X96562500Y-104800000D02*
X95697268Y-104800000D01*
X91000000Y-91220000D02*
X91110000Y-91110000D01*
X91000000Y-95040000D02*
X91000000Y-94800000D01*
X92206016Y-96720330D02*
X92260000Y-96666346D01*
X92260000Y-94126346D02*
X92260000Y-93173654D01*
X92260000Y-95713654D02*
X91586346Y-95040000D01*
X91586346Y-94800000D02*
X92260000Y-94126346D01*
X93460001Y-102836599D02*
X93300000Y-102676598D01*
X92260000Y-93173654D02*
X91586346Y-92500000D01*
X94762744Y-105200000D02*
X93460000Y-103897256D01*
X95297268Y-105200000D02*
X94762744Y-105200000D01*
X91586346Y-95040000D02*
X91000000Y-95040000D01*
X93300000Y-101974302D02*
X93060000Y-101734303D01*
X95697268Y-104800000D02*
X95297268Y-105200000D01*
%TO.N,GPIO6*%
X92660000Y-97740000D02*
X91110000Y-96190000D01*
X95462954Y-105600000D02*
X94597058Y-105600000D01*
X96562500Y-105200000D02*
X95862954Y-105200000D01*
X92900000Y-102842283D02*
X92900000Y-102139988D01*
X93060000Y-104062942D02*
X93060000Y-103002284D01*
X92900000Y-102139988D02*
X92660000Y-101899988D01*
X92660000Y-101899988D02*
X92660000Y-97740000D01*
X93060000Y-103002284D02*
X92900000Y-102842283D01*
X94597058Y-105600000D02*
X93060000Y-104062942D01*
X95862954Y-105200000D02*
X95462954Y-105600000D01*
%TO.N,GPIO7*%
X92000000Y-100533654D02*
X92260000Y-100793654D01*
X92660000Y-104228628D02*
X94431372Y-106000000D01*
X92000000Y-99620000D02*
X92000000Y-100533654D01*
X91110000Y-98730000D02*
X92000000Y-99620000D01*
X92500000Y-102305674D02*
X92500000Y-103007968D01*
X95628640Y-106000000D02*
X96028640Y-105600000D01*
X92500000Y-103007968D02*
X92660000Y-103167969D01*
X94431372Y-106000000D02*
X95628640Y-106000000D01*
X92260000Y-100793654D02*
X92260000Y-101746346D01*
X92260000Y-101746346D02*
X92100336Y-101906010D01*
X96028640Y-105600000D02*
X96562500Y-105600000D01*
X92100336Y-101906010D02*
X92500000Y-102305674D01*
X92660000Y-103167969D02*
X92660000Y-104228628D01*
%TO.N,GPIO8*%
X91110000Y-101270000D02*
X91110000Y-101481360D01*
X92000000Y-102371360D02*
X92000000Y-103073654D01*
X92260000Y-104286346D02*
X92206016Y-104340330D01*
X91110000Y-101481360D02*
X92000000Y-102371360D01*
X92260000Y-103333654D02*
X92260000Y-104286346D01*
X92206016Y-104340330D02*
X94265686Y-106400000D01*
X96028640Y-106400000D02*
X96562500Y-106400000D01*
X94265686Y-106400000D02*
X96028640Y-106400000D01*
X92000000Y-103073654D02*
X92260000Y-103333654D01*
%TO.N,GPIO9*%
X94100000Y-106800000D02*
X96562500Y-106800000D01*
X91110000Y-103810000D02*
X94100000Y-106800000D01*
%TO.N,GPIO10*%
X95825000Y-107403640D02*
X96028640Y-107200000D01*
X94868628Y-109500000D02*
X95500000Y-108868628D01*
X96028640Y-108000000D02*
X95825000Y-107796360D01*
X91110000Y-108890000D02*
X91720000Y-109500000D01*
X95825000Y-107796360D02*
X95825000Y-107403640D01*
X91720000Y-109500000D02*
X94868628Y-109500000D01*
X95500000Y-108868628D02*
X95500000Y-108585785D01*
X96028640Y-107200000D02*
X96396815Y-107200000D01*
X96085786Y-108000000D02*
X96028640Y-108000000D01*
X96396815Y-107200000D02*
X96562500Y-107200000D01*
X95500000Y-108585785D02*
X96085786Y-108000000D01*
%TO.N,GPIO11*%
X95900000Y-108751471D02*
X96251471Y-108400000D01*
X91110000Y-111430000D02*
X92540000Y-110000000D01*
X96562500Y-108400000D02*
X96562500Y-107600000D01*
X96251471Y-108400000D02*
X96562500Y-108400000D01*
X94934314Y-110000000D02*
X95900000Y-109034314D01*
X95900000Y-109034314D02*
X95900000Y-108751471D01*
X92540000Y-110000000D02*
X94934314Y-110000000D01*
%TO.N,GPIO12*%
X97400000Y-108437500D02*
X97400000Y-109034314D01*
X92580000Y-112500000D02*
X91110000Y-113970000D01*
X95245390Y-111000000D02*
X94651472Y-111000000D01*
X96135390Y-110110000D02*
X95245390Y-111000000D01*
X96324314Y-110110000D02*
X96135390Y-110110000D01*
X97400000Y-109034314D02*
X96324314Y-110110000D01*
X93000000Y-112500000D02*
X92580000Y-112500000D01*
%TO.N,GPIO13*%
X91110000Y-116510000D02*
X94000000Y-113620000D01*
X97500000Y-107500000D02*
X97800000Y-107800000D01*
X96300000Y-109199999D02*
X96300000Y-109000000D01*
X95100000Y-110400000D02*
X96300000Y-109199999D01*
X94000000Y-110400000D02*
X95100000Y-110400000D01*
X96300000Y-109000000D02*
X96500000Y-109000000D01*
X97800000Y-107800000D02*
X97800000Y-108437500D01*
X94000000Y-113620000D02*
X94000000Y-110400000D01*
%TO.N,GPIO14*%
X98341869Y-107539844D02*
X98341869Y-107658131D01*
X98200000Y-107800000D02*
X98200000Y-108437500D01*
X94075735Y-114575735D02*
X93000000Y-115651470D01*
X93000000Y-115651470D02*
X93000000Y-119700000D01*
X93000000Y-119700000D02*
X91110000Y-121590000D01*
X98341869Y-107658131D02*
X98200000Y-107800000D01*
%TO.N,GPIO15*%
X93000000Y-122240000D02*
X93000000Y-120265686D01*
X94848530Y-114500000D02*
X94400000Y-114051470D01*
X93500000Y-116000000D02*
X95000000Y-114500000D01*
X96301076Y-110510000D02*
X96490000Y-110510000D01*
X97825000Y-109175000D02*
X98396360Y-109175000D01*
X96490000Y-110510000D02*
X97825000Y-109175000D01*
X94400000Y-114051470D02*
X94400000Y-112251471D01*
X95034314Y-111900000D02*
X96050000Y-110884315D01*
X93500000Y-119765686D02*
X93500000Y-116000000D01*
X91110000Y-124130000D02*
X93000000Y-122240000D01*
X94400000Y-112251471D02*
X94751471Y-111900000D01*
X96050000Y-110761076D02*
X96301076Y-110510000D01*
X94751471Y-111900000D02*
X95034314Y-111900000D01*
X95000000Y-114500000D02*
X94848530Y-114500000D01*
X98396360Y-109175000D02*
X98600000Y-108971360D01*
X96050000Y-110884315D02*
X96050000Y-110761076D01*
X93000000Y-120265686D02*
X93500000Y-119765686D01*
X98600000Y-108971360D02*
X98600000Y-108437500D01*
%TO.N,XIN*%
X98562045Y-109575000D02*
X98425000Y-109575000D01*
X102580000Y-87350000D02*
X104870000Y-85060000D01*
X102703640Y-105000000D02*
X102700000Y-105003640D01*
X102703640Y-105400000D02*
X102700000Y-105403640D01*
X97100000Y-118650000D02*
X97100000Y-116600000D01*
X102700000Y-103200000D02*
X102700000Y-103396360D01*
X102700000Y-104603640D02*
X102700000Y-104996360D01*
X102703640Y-104600000D02*
X102700000Y-104603640D01*
X99643390Y-107700000D02*
X99603640Y-107700000D01*
X102700000Y-104596360D02*
X102703640Y-104600000D01*
X102700000Y-103403640D02*
X102700000Y-103796360D01*
X102703640Y-103400000D02*
X102700000Y-103403640D01*
X99400000Y-108437500D02*
X99400000Y-108971360D01*
X102700000Y-105003640D02*
X102700000Y-105396360D01*
X99603640Y-107700000D02*
X99400000Y-107903640D01*
X101348529Y-99334313D02*
X101000000Y-99334313D01*
X97100000Y-116600000D02*
X97000000Y-116500000D01*
X102700000Y-105403640D02*
X102700000Y-105637955D01*
X100100000Y-106900000D02*
X100000000Y-107000000D01*
X102700000Y-104996360D02*
X102703640Y-105000000D01*
X102100000Y-106237955D02*
X102100000Y-106534315D01*
X102100000Y-106534315D02*
X101900000Y-106734315D01*
X102700000Y-103803640D02*
X102700000Y-104196360D01*
X102500000Y-102500000D02*
X102500000Y-103000000D01*
X98962046Y-109175000D02*
X98562045Y-109575000D01*
X102700000Y-105396360D02*
X102703640Y-105400000D01*
X101900000Y-106734315D02*
X101900000Y-106900000D01*
X102700000Y-104203640D02*
X102700000Y-104596360D01*
X102703640Y-104200000D02*
X102700000Y-104203640D01*
X102500000Y-103000000D02*
X102700000Y-103200000D01*
X102700000Y-105637955D02*
X102100000Y-106237955D01*
X99400000Y-108971360D02*
X99196360Y-109175000D01*
X101000000Y-99334313D02*
X101000000Y-94711424D01*
X101900000Y-106900000D02*
X100100000Y-106900000D01*
X100000000Y-107343390D02*
X99643390Y-107700000D01*
X98425000Y-109575000D02*
X98000000Y-110000000D01*
X102700000Y-103796360D02*
X102703640Y-103800000D01*
X101700000Y-99685784D02*
X101348529Y-99334313D01*
X99196360Y-109175000D02*
X98962046Y-109175000D01*
X102700000Y-104196360D02*
X102703640Y-104200000D01*
X101845151Y-99643187D02*
X101802554Y-99685784D01*
X101802554Y-99685784D02*
X101700000Y-99685784D01*
X102700000Y-103396360D02*
X102703640Y-103400000D01*
X100000000Y-107000000D02*
X100000000Y-107343390D01*
X102703640Y-103800000D02*
X102700000Y-103803640D01*
X102580000Y-93131424D02*
X102580000Y-87350000D01*
X99400000Y-107903640D02*
X99400000Y-108437500D01*
X101000000Y-94711424D02*
X102580000Y-93131424D01*
%TO.N,SWCLK*%
X101000000Y-109565686D02*
X101000000Y-108437500D01*
X100181486Y-111213714D02*
X101145200Y-110250000D01*
X101000000Y-109565686D02*
X101145200Y-109710886D01*
X101145200Y-109710886D02*
X101145200Y-110250000D01*
%TO.N,SWD*%
X101761765Y-109761765D02*
X101400000Y-109400000D01*
X101761765Y-109983435D02*
X101761765Y-109761765D01*
X101400000Y-109400000D02*
X101400000Y-108437500D01*
X101745200Y-110000000D02*
X101761765Y-109983435D01*
%TO.N,RUN*%
X106925735Y-103572961D02*
X108890000Y-101608696D01*
X103488235Y-111011765D02*
X103488235Y-110894506D01*
X103488235Y-110894506D02*
X101800000Y-109206271D01*
X108890000Y-101608696D02*
X108890000Y-101270000D01*
X106925735Y-104925735D02*
X106925735Y-103572961D01*
X101800000Y-109206271D02*
X101800000Y-108437500D01*
%TO.N,GPIO16*%
X106600000Y-119865685D02*
X106600000Y-113003186D01*
X108000000Y-123240000D02*
X108000000Y-122326346D01*
X102200000Y-108971360D02*
X102200000Y-108437500D01*
X106325000Y-113000000D02*
X102500000Y-109175000D01*
X108000000Y-122326346D02*
X107740000Y-122066346D01*
X102500000Y-109175000D02*
X102403640Y-109175000D01*
X107740000Y-121113654D02*
X107793984Y-121059670D01*
X107740000Y-122066346D02*
X107740000Y-121113654D01*
X107793984Y-121059670D02*
X106600000Y-119865685D01*
X106596814Y-113000000D02*
X106325000Y-113000000D01*
X108890000Y-124130000D02*
X108000000Y-123240000D01*
X102403640Y-109175000D02*
X102200000Y-108971360D01*
X106600000Y-113003186D02*
X106596814Y-113000000D01*
%TO.N,GPIO17*%
X107000000Y-112837500D02*
X102600000Y-108437500D01*
X107000000Y-119700000D02*
X107000000Y-112837500D01*
X108890000Y-121590000D02*
X107000000Y-119700000D01*
%TO.N,GPIO18*%
X108413654Y-115120000D02*
X107740000Y-114446346D01*
X107340000Y-112072031D02*
X107340000Y-111840000D01*
X108890000Y-116510000D02*
X108890000Y-115120000D01*
X107340000Y-111840000D02*
X103437500Y-107937500D01*
X103437500Y-107937500D02*
X103437500Y-107600000D01*
X108890000Y-115120000D02*
X108413654Y-115120000D01*
X107740000Y-113493654D02*
X108253654Y-112980000D01*
X108247968Y-112980000D02*
X107340000Y-112072031D01*
X107740000Y-114446346D02*
X107740000Y-113493654D01*
X108253654Y-112980000D02*
X108247968Y-112980000D01*
%TO.N,GPIO19*%
X107740000Y-111906346D02*
X107740000Y-111240000D01*
X108413654Y-112580000D02*
X107740000Y-111906346D01*
X108890000Y-112580000D02*
X108413654Y-112580000D01*
X103971360Y-107200000D02*
X103437500Y-107200000D01*
X104175000Y-107403640D02*
X103971360Y-107200000D01*
X108890000Y-113970000D02*
X108890000Y-112580000D01*
X104175000Y-107675000D02*
X104175000Y-107403640D01*
X107740000Y-111240000D02*
X104175000Y-107675000D01*
%TO.N,GPIO20*%
X104260000Y-106800000D02*
X103437500Y-106800000D01*
X108890000Y-111430000D02*
X104260000Y-106800000D01*
%TO.N,GPIO21*%
X108890000Y-108890000D02*
X106400000Y-106400000D01*
X106400000Y-106400000D02*
X103437500Y-106400000D01*
%TO.N,GPIO22*%
X107100000Y-105600000D02*
X103437500Y-105600000D01*
X108890000Y-103810000D02*
X107100000Y-105600000D01*
%TO.N,GPIO23*%
X107740000Y-99880000D02*
X107740000Y-100793654D01*
X106325735Y-104677206D02*
X106325735Y-105174264D01*
X106500000Y-104502941D02*
X106325735Y-104677206D01*
X106325735Y-105174264D02*
X106351471Y-105200000D01*
X106475000Y-102525000D02*
X106475000Y-102526304D01*
X108890000Y-98730000D02*
X107740000Y-99880000D01*
X107740000Y-101260000D02*
X106475000Y-102525000D01*
X106500000Y-102551304D02*
X106500000Y-104502941D01*
X107740000Y-100793654D02*
X107740000Y-101260000D01*
X106475000Y-102526304D02*
X106500000Y-102551304D01*
X106351471Y-105200000D02*
X103437500Y-105200000D01*
%TO.N,GPIO24*%
X106100000Y-104337255D02*
X105925735Y-104511521D01*
X107740000Y-99314314D02*
X107340000Y-99714315D01*
X105925735Y-104511521D02*
X105925735Y-104800000D01*
X107340000Y-99714315D02*
X107340000Y-101094314D01*
X106075000Y-102359315D02*
X106075000Y-102691990D01*
X108413654Y-97580000D02*
X107740000Y-98253654D01*
X106100000Y-102716990D02*
X106100000Y-104337255D01*
X105925735Y-104800000D02*
X103437500Y-104800000D01*
X106075000Y-102691990D02*
X106100000Y-102716990D01*
X107740000Y-98253654D02*
X107740000Y-99206346D01*
X107340000Y-101094314D02*
X106075000Y-102359315D01*
X107740000Y-99206346D02*
X107740000Y-99314314D01*
X108890000Y-96190000D02*
X108890000Y-97580000D01*
X108890000Y-97580000D02*
X108413654Y-97580000D01*
%TO.N,GPIO26_ADC0*%
X106800000Y-91225686D02*
X106800000Y-99354315D01*
X105700000Y-104171571D02*
X105525734Y-104345836D01*
X106940000Y-100928628D02*
X105675000Y-102193630D01*
X106800000Y-99354315D02*
X106801472Y-99355788D01*
X103971360Y-104000000D02*
X103437500Y-104000000D01*
X106801472Y-99355788D02*
X106801472Y-99410102D01*
X105525734Y-104400000D02*
X104769933Y-104400000D01*
X106915686Y-91110000D02*
X106800000Y-91225686D01*
X105700000Y-102882676D02*
X105700000Y-104171571D01*
X105675000Y-102857676D02*
X105700000Y-102882676D01*
X104769933Y-104400000D02*
X104369933Y-104000000D01*
X105675000Y-102193630D02*
X105675000Y-102857676D01*
X108890000Y-91110000D02*
X106915686Y-91110000D01*
X104369933Y-104000000D02*
X103971360Y-104000000D01*
X106801472Y-99410102D02*
X106940000Y-99548630D01*
X105525734Y-104345836D02*
X105525734Y-104400000D01*
X106940000Y-99548630D02*
X106940000Y-100928628D01*
%TO.N,GPIO27_ADC1*%
X107740000Y-90710000D02*
X107740000Y-90633654D01*
X108890000Y-89960000D02*
X108890000Y-88570000D01*
X103437500Y-103600000D02*
X103971360Y-103600000D01*
X105000000Y-104000000D02*
X105275000Y-103725000D01*
X105275000Y-103725000D02*
X105275000Y-102027945D01*
X104600000Y-103600000D02*
X105000000Y-104000000D01*
X106401472Y-100901472D02*
X106401472Y-99521473D01*
X105275000Y-102027945D02*
X106401472Y-100901472D01*
X106400000Y-99520000D02*
X106400000Y-91060000D01*
X106400000Y-91060000D02*
X106750001Y-90710000D01*
X103971360Y-103600000D02*
X104600000Y-103600000D01*
X108413654Y-89960000D02*
X108890000Y-89960000D01*
X106750001Y-90710000D02*
X107740000Y-90710000D01*
X106401472Y-99521473D02*
X106400000Y-99520000D01*
X107740000Y-90633654D02*
X108413654Y-89960000D01*
%TO.N,GPIO28_ADC2*%
X104300000Y-103200000D02*
X104875000Y-102625000D01*
X104875000Y-102625000D02*
X104875000Y-101464382D01*
X106000000Y-100339382D02*
X106000000Y-83500000D01*
X106000000Y-83500000D02*
X106010000Y-83490000D01*
X103437500Y-103200000D02*
X104300000Y-103200000D01*
X104875000Y-101464382D02*
X106000000Y-100339382D01*
X106010000Y-83490000D02*
X108890000Y-83490000D01*
%TO.N,GPIO29_ADC3*%
X104175000Y-102596360D02*
X103971360Y-102800000D01*
X104000000Y-102028640D02*
X104175000Y-102203640D01*
X105450000Y-100050000D02*
X104775000Y-100725000D01*
X104175000Y-102203640D02*
X104175000Y-102500000D01*
X108890000Y-78410000D02*
X105450000Y-81850000D01*
X104175000Y-102500000D02*
X104175000Y-102596360D01*
X104000000Y-101773696D02*
X104000000Y-102028640D01*
X104775000Y-100998696D02*
X104000000Y-101773696D01*
X105450000Y-81850000D02*
X105450000Y-100050000D01*
X104775000Y-100725000D02*
X104775000Y-100998696D01*
X103971360Y-102800000D02*
X103437500Y-102800000D01*
%TO.N,QSPI_SP3*%
X103587500Y-94865000D02*
X102135000Y-94865000D01*
X102135000Y-94865000D02*
X102000000Y-95000000D01*
X99400000Y-102693889D02*
X99400000Y-101562500D01*
X99795743Y-102900000D02*
X99606111Y-102900000D01*
X99606111Y-102900000D02*
X99400000Y-102693889D01*
%TO.N,QSPI_SCLK*%
X98100000Y-105000000D02*
X98100000Y-103100000D01*
X98925034Y-103100000D02*
X99000000Y-103025034D01*
X99000000Y-103025034D02*
X99000000Y-101562500D01*
X98100000Y-103100000D02*
X98925034Y-103100000D01*
X102000000Y-96000000D02*
X103452500Y-96000000D01*
X97899998Y-105000000D02*
X98100000Y-105000000D01*
X103452500Y-96000000D02*
X103587500Y-96135000D01*
%TO.N,QSPI_SD0*%
X98600000Y-101028640D02*
X98600000Y-101562500D01*
X99240129Y-100214491D02*
X99087923Y-100366697D01*
X102137680Y-98854820D02*
X103587500Y-97405000D01*
X99087923Y-100366697D02*
X99087923Y-100540717D01*
X101709205Y-98854820D02*
X102137680Y-98854820D01*
X99087923Y-100540717D02*
X98600000Y-101028640D01*
%TO.N,QSPI_SP2*%
X99000000Y-97910001D02*
X99000000Y-99500000D01*
X97224999Y-96135000D02*
X99000000Y-97910001D01*
X96412500Y-96135000D02*
X97224999Y-96135000D01*
X98200000Y-100300000D02*
X98200000Y-101562500D01*
X99000000Y-99500000D02*
X98200000Y-100300000D01*
%TO.N,QSPI_SP1*%
X97800000Y-101028640D02*
X97800000Y-101562500D01*
X99400000Y-99300000D02*
X99600000Y-99500000D01*
X99400000Y-97744316D02*
X99400000Y-99300000D01*
X99400000Y-97744316D02*
X97525000Y-95869315D01*
X97525000Y-95776424D02*
X97258576Y-95510000D01*
X97525000Y-95869315D02*
X97525000Y-95776424D01*
X96412500Y-95510000D02*
X96412500Y-94865000D01*
X97600001Y-100828641D02*
X97800000Y-101028640D01*
X97258576Y-95510000D02*
X96412500Y-95510000D01*
X97600001Y-100645229D02*
X97600001Y-100828641D01*
%TD*%
M02*
