%TF.GenerationSoftware,KiCad,Pcbnew,10.0.0*%
%TF.CreationDate,2026-05-03T16:58:30-04:00*%
%TF.ProjectId,custom_devboard,63757374-6f6d-45f6-9465-76626f617264,rev?*%
%TF.SameCoordinates,Original*%
%TF.FileFunction,Legend,Bot*%
%TF.FilePolarity,Positive*%
%FSLAX46Y46*%
G04 Gerber Fmt 4.6, Leading zero omitted, Abs format (unit mm)*
G04 Created by KiCad (PCBNEW 10.0.0) date 2026-05-03 16:58:30*
%MOMM*%
%LPD*%
G01*
G04 APERTURE LIST*
%ADD10C,1.000000*%
G04 APERTURE END LIST*
D10*
G36*
X98455524Y-116232318D02*
G01*
X98362620Y-116284891D01*
X98339264Y-116351570D01*
X98234492Y-116368402D01*
X98159166Y-116416538D01*
X98060553Y-116481079D01*
X98037197Y-116481079D01*
X98013841Y-116509717D01*
X97871631Y-116612726D01*
X97810906Y-116705478D01*
X97828033Y-116791817D01*
X97706065Y-116801221D01*
X97613161Y-116892262D01*
X97636516Y-117016643D01*
X97579584Y-117124372D01*
X97561259Y-117231638D01*
X97613161Y-117556908D01*
X97671290Y-117623586D01*
X97636516Y-117705225D01*
X97709968Y-117748040D01*
X97798968Y-117858243D01*
X97886163Y-117839009D01*
X97971190Y-117919699D01*
X98124392Y-117948857D01*
X98228714Y-117939453D01*
X98339264Y-118054003D01*
X98693233Y-118116407D01*
X98885269Y-118202320D01*
X98966236Y-118202320D01*
X99349788Y-118269426D01*
X99500303Y-118259595D01*
X99918630Y-118331402D01*
X100098729Y-118340806D01*
X100464635Y-118321999D01*
X100929154Y-118360040D01*
X100760474Y-118489122D01*
X100325020Y-118694713D01*
X100075373Y-118781053D01*
X99893223Y-118940744D01*
X99692339Y-119024685D01*
X99642054Y-119093456D01*
X99430755Y-119125130D01*
X99265189Y-119225575D01*
X99122978Y-119295245D01*
X99064849Y-119321318D01*
X99035784Y-119321318D01*
X98841768Y-119455994D01*
X98635103Y-119526910D01*
X98455524Y-119622653D01*
X98049134Y-119876116D01*
X97977988Y-119954224D01*
X97834262Y-120024005D01*
X97742104Y-120071674D01*
X97700355Y-120127015D01*
X97660185Y-120174478D01*
X97578387Y-120191556D01*
X97526485Y-120191556D01*
X97410225Y-120483060D01*
X97448373Y-120554095D01*
X97549322Y-120602739D01*
X97718002Y-120621973D01*
X97863326Y-120679248D01*
X98002423Y-120679248D01*
X98397394Y-120760458D01*
X98478360Y-120751055D01*
X98635103Y-120798927D01*
X99035784Y-120760458D01*
X99122978Y-120798927D01*
X99314495Y-120760458D01*
X99419337Y-120779692D01*
X99500303Y-120779692D01*
X99610853Y-120818161D01*
X99785243Y-120751055D01*
X100156858Y-120798927D01*
X100261181Y-120779692D01*
X100702344Y-120751055D01*
X100975347Y-120818161D01*
X101190219Y-120798927D01*
X101358381Y-120846798D01*
X101715464Y-120959211D01*
X101782070Y-120988571D01*
X101800063Y-121023752D01*
X101811482Y-121061793D01*
X101643320Y-121305853D01*
X101416510Y-121444338D01*
X101271705Y-121564017D01*
X100836250Y-121826884D01*
X100702344Y-121846118D01*
X100487472Y-122003838D01*
X100261181Y-122070943D01*
X100057726Y-122164122D01*
X99939439Y-122207624D01*
X99900983Y-122245333D01*
X99814308Y-122367149D01*
X99599435Y-122376980D01*
X99413108Y-122462892D01*
X99233529Y-122568466D01*
X99146613Y-122618725D01*
X98989591Y-122659080D01*
X98951562Y-122739662D01*
X98827139Y-122768928D01*
X98732904Y-122811994D01*
X98705170Y-122874075D01*
X98536490Y-122912543D01*
X98501716Y-122912543D01*
X98350683Y-123031795D01*
X98275425Y-123003157D01*
X98190584Y-123099609D01*
X98054843Y-123175409D01*
X97863326Y-123275854D01*
X97810906Y-123275854D01*
X97694646Y-123314323D01*
X97546727Y-123445542D01*
X97456407Y-123538858D01*
X97433581Y-123601125D01*
X97480165Y-123653929D01*
X97706065Y-123706271D01*
X97776132Y-123696441D01*
X97860642Y-123712738D01*
X97932875Y-123763546D01*
X98101036Y-123763546D01*
X98286844Y-123725505D01*
X98548428Y-123772950D01*
X98739945Y-123763546D01*
X98942880Y-123772950D01*
X98989591Y-123772950D01*
X99106278Y-123759814D01*
X99181108Y-123725505D01*
X99274012Y-123706271D01*
X99454111Y-123720804D01*
X99610853Y-123734909D01*
X99802370Y-123734909D01*
X99988178Y-123648996D01*
X100110147Y-123725505D01*
X100194228Y-123701570D01*
X100261181Y-123715675D01*
X100403391Y-123665666D01*
X100609440Y-123601125D01*
X100836250Y-123667803D01*
X100951991Y-123639166D01*
X101358381Y-123696441D01*
X101521352Y-123667803D01*
X101846256Y-123725505D01*
X102061128Y-123706271D01*
X102246936Y-123772950D01*
X102472154Y-123660406D01*
X102519938Y-123577189D01*
X102496583Y-123538721D01*
X102334131Y-123510083D01*
X102269027Y-123416904D01*
X102142614Y-123385703D01*
X101892967Y-123404937D01*
X101833871Y-123386337D01*
X101800063Y-123323726D01*
X101638567Y-123396824D01*
X101550416Y-123414340D01*
X101509414Y-123414340D01*
X100905799Y-123361767D01*
X100452698Y-123385703D01*
X100325020Y-123424171D01*
X100179695Y-123385703D01*
X100121565Y-123414340D01*
X100034890Y-123371598D01*
X99963025Y-123426475D01*
X99883856Y-123443405D01*
X99785243Y-123424171D01*
X99706731Y-123438494D01*
X99645628Y-123481446D01*
X99314495Y-123443405D01*
X99192527Y-123481446D01*
X99068859Y-123510365D01*
X98977654Y-123507946D01*
X98849976Y-123490849D01*
X98751363Y-123510083D01*
X98623685Y-123462212D01*
X98501716Y-123510083D01*
X98420750Y-123414340D01*
X98716589Y-123227983D01*
X98885269Y-123189942D01*
X98986477Y-123104030D01*
X99128688Y-123056158D01*
X99372625Y-122941181D01*
X99430755Y-122881341D01*
X99598916Y-122780896D01*
X99814308Y-122639846D01*
X99932643Y-122594539D01*
X100034371Y-122532562D01*
X100272599Y-122453489D01*
X100510827Y-122343213D01*
X100598022Y-122329108D01*
X100754765Y-122233365D01*
X100986765Y-122051709D01*
X101017609Y-122019044D01*
X101195928Y-121937159D01*
X101388008Y-121846876D01*
X101518237Y-121755076D01*
X101632780Y-121673719D01*
X101712868Y-121649930D01*
X101750045Y-121584647D01*
X101822900Y-121564017D01*
X101892208Y-121479822D01*
X101985871Y-121444338D01*
X101973934Y-121415701D01*
X102010269Y-121375120D01*
X102200744Y-121305853D01*
X102329229Y-121167608D01*
X102357486Y-121100261D01*
X102287419Y-120865605D01*
X102212162Y-120846798D01*
X102142614Y-120865605D01*
X102119258Y-120798927D01*
X102044026Y-120776738D01*
X101822900Y-120660013D01*
X101631383Y-120660013D01*
X101509414Y-120574101D01*
X101358381Y-120574101D01*
X101082991Y-120487800D01*
X100893861Y-120464253D01*
X100702344Y-120502294D01*
X100534183Y-120464253D01*
X100406505Y-120554867D01*
X100034890Y-120502294D01*
X99749950Y-120536060D01*
X99430755Y-120502294D01*
X99326433Y-120526229D01*
X99204464Y-120502294D01*
X99157752Y-120536060D01*
X98792272Y-120480480D01*
X98513654Y-120464253D01*
X98420750Y-120483060D01*
X98374038Y-120526229D01*
X98240893Y-120472097D01*
X98101036Y-120454422D01*
X98037197Y-120287299D01*
X98705170Y-119837648D01*
X98905511Y-119749171D01*
X99169690Y-119641460D01*
X99200493Y-119602480D01*
X99340965Y-119567515D01*
X99481173Y-119525162D01*
X99535596Y-119455102D01*
X99660160Y-119436296D01*
X99814308Y-119268745D01*
X99837144Y-119268745D01*
X99990846Y-119229184D01*
X100179695Y-119082388D01*
X100510827Y-118958007D01*
X100766183Y-118785755D01*
X100998702Y-118685310D01*
X101271705Y-118594269D01*
X101400586Y-118462725D01*
X101736224Y-118331402D01*
X101807957Y-118244386D01*
X101985871Y-118183086D01*
X102072547Y-118025366D01*
X101985871Y-117891582D01*
X101927741Y-117939453D01*
X101846256Y-117872348D01*
X101802970Y-117933127D01*
X101759061Y-117948857D01*
X101678094Y-117900985D01*
X101521352Y-117968091D01*
X100975347Y-118025366D01*
X100893861Y-117958260D01*
X100735215Y-118013192D01*
X100487472Y-118034769D01*
X100272599Y-118025366D01*
X100191632Y-118044600D01*
X100034890Y-118015963D01*
X99985064Y-118051866D01*
X99918630Y-118077939D01*
X99814308Y-118044600D01*
X99770067Y-118004295D01*
X99657046Y-117987325D01*
X99587498Y-118015963D01*
X99523659Y-117996728D01*
X99454111Y-118025366D01*
X99226753Y-118003887D01*
X98971945Y-117934752D01*
X98548428Y-117858243D01*
X98466942Y-117733862D01*
X98205877Y-117685990D01*
X98126609Y-117591749D01*
X98049134Y-117547077D01*
X97991004Y-117427826D01*
X97956230Y-117284211D01*
X97932875Y-117174363D01*
X97973358Y-117035877D01*
X98057438Y-116896964D01*
X98170584Y-116715308D01*
X98455524Y-116566992D01*
X98525072Y-116437909D01*
X98647041Y-116380635D01*
X98635103Y-116246423D01*
X98455524Y-116232318D01*
G37*
G36*
X100702344Y-112591512D02*
G01*
X100812895Y-112591512D01*
X101358381Y-112749232D01*
X101631383Y-112902250D01*
X101678094Y-112992864D01*
X101822900Y-113040736D01*
X101932659Y-113148345D01*
X102119258Y-113265561D01*
X102107840Y-113284795D01*
X102129817Y-113323230D01*
X102223580Y-113375409D01*
X102223580Y-113509621D01*
X102322984Y-113655044D01*
X102357486Y-113757955D01*
X102438453Y-113757955D01*
X102357486Y-113910973D01*
X102386551Y-114143065D01*
X102415616Y-114226840D01*
X102334131Y-114322583D01*
X102334131Y-114384560D01*
X102102784Y-114482842D01*
X101973052Y-114622297D01*
X101927741Y-114814977D01*
X101712868Y-114786339D01*
X101578826Y-114823778D01*
X101521352Y-114939357D01*
X101405092Y-114920123D01*
X101364609Y-114970560D01*
X101288832Y-115029972D01*
X101085897Y-115125715D01*
X100963928Y-115087674D01*
X100886051Y-115116335D01*
X100783830Y-115235563D01*
X100644214Y-115264200D01*
X100452698Y-115235563D01*
X100324329Y-115255977D01*
X100191632Y-115321903D01*
X100075373Y-115321903D01*
X99895274Y-115350540D01*
X99814308Y-115321903D01*
X99693889Y-115339734D01*
X99587498Y-115393710D01*
X99587498Y-115450985D01*
X99457004Y-115494244D01*
X99326433Y-115508260D01*
X99262594Y-115508260D01*
X99173056Y-115584703D01*
X99064849Y-115608705D01*
X98904992Y-115594600D01*
X98751363Y-115580068D01*
X98565555Y-115637342D01*
X98240651Y-115580068D01*
X98101036Y-115637342D01*
X97671290Y-115498857D01*
X97514548Y-115536898D01*
X97294768Y-115386119D01*
X97091031Y-115283435D01*
X97050028Y-114939357D01*
X97036160Y-114910720D01*
X97386870Y-114910720D01*
X97410225Y-114972697D01*
X97386870Y-115039802D01*
X97445000Y-115068440D01*
X97572677Y-115240692D01*
X97798968Y-115383879D01*
X98089617Y-115393710D01*
X98286844Y-115350540D01*
X98565555Y-115350540D01*
X98693233Y-115393710D01*
X99076786Y-115264200D01*
X99239238Y-115283435D01*
X99314495Y-115254797D01*
X99419337Y-115254797D01*
X99587498Y-115168885D01*
X99703757Y-115168885D01*
X99797466Y-115098107D01*
X99883856Y-115077843D01*
X100061607Y-115064415D01*
X100110147Y-115039802D01*
X100191632Y-114920123D01*
X100406505Y-114939357D01*
X100538678Y-114929255D01*
X100574666Y-114910720D01*
X100656152Y-114814977D01*
X100998702Y-114767105D01*
X101085897Y-114657257D01*
X101213575Y-114628620D01*
X101439866Y-114322583D01*
X101451284Y-114126395D01*
X101846256Y-114140500D01*
X101944131Y-114117605D01*
X102009471Y-114037971D01*
X102037773Y-113863529D01*
X102008708Y-113748551D01*
X101869611Y-113471153D01*
X101759061Y-113375409D01*
X101678094Y-113246327D01*
X101608027Y-113284795D01*
X101521352Y-113246327D01*
X101509414Y-113151011D01*
X101451284Y-113088607D01*
X101300770Y-113131777D01*
X101288832Y-113131777D01*
X101239526Y-113095874D01*
X101178801Y-113059970D01*
X101143508Y-113059970D01*
X101103469Y-113042267D01*
X101022058Y-112954823D01*
X100836250Y-112863782D01*
X100574666Y-112883016D01*
X100383149Y-112815910D01*
X100348375Y-112835144D01*
X100226407Y-112768466D01*
X100226407Y-112825741D01*
X100170872Y-112792402D01*
X100086791Y-112758635D01*
X99941986Y-112815910D01*
X99883856Y-112777869D01*
X99773306Y-112806507D01*
X99610853Y-112835144D01*
X99540786Y-112821039D01*
X99454111Y-112806507D01*
X99349788Y-112844975D01*
X99349788Y-112797103D01*
X99181108Y-112902250D01*
X99122978Y-112883016D01*
X99047721Y-113021929D01*
X98942880Y-113002695D01*
X98612267Y-113088607D01*
X98525072Y-113227520D01*
X98426459Y-113313433D01*
X98315908Y-113375409D01*
X98135810Y-113542960D01*
X98013841Y-113590832D01*
X98013841Y-113748551D01*
X97951186Y-113775278D01*
X97851389Y-113863529D01*
X97718002Y-113910973D01*
X97706065Y-114002015D01*
X97613161Y-114030652D01*
X97659872Y-114169565D01*
X97572737Y-114202736D01*
X97537903Y-114322583D01*
X97549322Y-114422601D01*
X97468355Y-114451666D01*
X97433581Y-114561514D01*
X97445000Y-114795743D01*
X97386870Y-114910720D01*
X97036160Y-114910720D01*
X96980480Y-114795743D01*
X97050028Y-114767105D01*
X96957124Y-114638023D01*
X97102449Y-114561514D01*
X97155794Y-114448775D01*
X97276838Y-114312752D01*
X97253483Y-114236243D01*
X97274575Y-114162149D01*
X97340677Y-114097758D01*
X97380090Y-113944050D01*
X97450377Y-113861097D01*
X97549322Y-113825061D01*
X97618870Y-113689139D01*
X97700355Y-113560057D01*
X97886163Y-113442515D01*
X97944293Y-113318135D01*
X98101036Y-113304030D01*
X98182521Y-113160415D01*
X98397394Y-113079204D01*
X98478360Y-112974057D01*
X98635103Y-112935589D01*
X98670396Y-112863782D01*
X98971945Y-112768466D01*
X99076786Y-112710764D01*
X99314495Y-112639384D01*
X99454111Y-112639384D01*
X99639918Y-112567576D01*
X99918630Y-112533810D01*
X100022952Y-112572278D01*
X100272599Y-112505172D01*
X100702344Y-112591512D01*
G37*
G36*
X97514548Y-107822732D02*
G01*
X97363514Y-107813328D01*
X97207727Y-107839003D01*
X97122423Y-107907143D01*
X97091031Y-108028323D01*
X97118158Y-108106952D01*
X97206036Y-108172017D01*
X97386870Y-108224511D01*
X97752776Y-108291617D01*
X97863326Y-108291617D01*
X98060553Y-108281786D01*
X98199709Y-108304159D01*
X98374038Y-108382231D01*
X98565555Y-108315553D01*
X98849976Y-108353593D01*
X98989591Y-108315553D01*
X99181108Y-108315553D01*
X99349788Y-108291617D01*
X99535596Y-108334359D01*
X99645628Y-108291617D01*
X100086791Y-108291617D01*
X100656152Y-108281786D01*
X101033476Y-108353593D01*
X101190219Y-108315553D01*
X101643320Y-108401465D01*
X101788126Y-108401465D01*
X101869611Y-108559185D01*
X101672385Y-108736139D01*
X101596609Y-108831882D01*
X101509414Y-108999005D01*
X101033476Y-109271702D01*
X100998702Y-109381550D01*
X100510827Y-109625610D01*
X100452698Y-109625610D01*
X100452698Y-109692716D01*
X100348375Y-109721353D01*
X100226407Y-109826500D01*
X100000116Y-109917114D01*
X99587498Y-110017559D01*
X99355498Y-110165875D01*
X99157752Y-110232981D01*
X99047721Y-110328724D01*
X98739945Y-110371467D01*
X98501716Y-110577058D01*
X98170584Y-110596292D01*
X98170584Y-110634760D01*
X97944293Y-110701439D01*
X97601742Y-110859159D01*
X97253483Y-111083984D01*
X97276838Y-111131856D01*
X97276838Y-111193832D01*
X97340677Y-111222897D01*
X97741358Y-111308810D01*
X98397394Y-111328044D01*
X98588911Y-111356681D01*
X98827139Y-111328044D01*
X99239238Y-111337447D01*
X99262594Y-111289576D01*
X100272599Y-111222897D01*
X100464635Y-111193832D01*
X100609440Y-111203663D01*
X100644214Y-111151090D01*
X100725700Y-111175026D01*
X101143508Y-111131856D01*
X101312188Y-111083984D01*
X101486577Y-111112622D01*
X101573253Y-111083984D01*
X101643320Y-111112622D01*
X102037773Y-111083984D01*
X102095902Y-111131856D01*
X102177388Y-111103218D01*
X102629970Y-111112622D01*
X102833424Y-111175026D01*
X102833424Y-111112622D01*
X102937746Y-111112622D01*
X103425621Y-111203663D01*
X103663850Y-111203663D01*
X103773881Y-111241704D01*
X104151725Y-111289576D01*
X104639081Y-111447295D01*
X104831117Y-111337447D01*
X104865891Y-111356681D01*
X104830036Y-111270828D01*
X104720566Y-111241704D01*
X104569533Y-111103218D01*
X104430437Y-111064750D01*
X104232691Y-110945498D01*
X104128369Y-110969434D01*
X103913497Y-110907030D01*
X103809174Y-110969434D01*
X103721980Y-110878393D01*
X103414203Y-110887796D01*
X102822006Y-110878393D01*
X102519938Y-110821118D01*
X102392260Y-110859159D01*
X102165450Y-110849755D01*
X101973934Y-110887796D01*
X101678094Y-110859159D01*
X101381736Y-110926264D01*
X101300770Y-110887796D01*
X100574666Y-110907030D01*
X100464635Y-110887796D01*
X100406505Y-110926264D01*
X99964822Y-110969434D01*
X99837144Y-111017306D01*
X99692339Y-110978838D01*
X99622272Y-110998072D01*
X99227820Y-111017306D01*
X98885269Y-111112622D01*
X98681815Y-111007475D01*
X98513654Y-111083984D01*
X98389026Y-111048892D01*
X98228714Y-111036113D01*
X98315908Y-110945498D01*
X98466942Y-110907030D01*
X98849976Y-110754012D01*
X99122978Y-110682205D01*
X99215268Y-110563404D01*
X99372625Y-110524485D01*
X99657046Y-110381297D01*
X99808080Y-110338128D01*
X100000116Y-110242384D01*
X100156858Y-110232981D01*
X100191632Y-110261618D01*
X100261181Y-110194513D01*
X100226407Y-110175706D01*
X100464635Y-110017559D01*
X100524448Y-109959906D01*
X100609440Y-109941050D01*
X100656152Y-109941050D01*
X100718110Y-109846199D01*
X100871024Y-109811967D01*
X100893861Y-109783330D01*
X100951991Y-109783330D01*
X100975347Y-109702119D01*
X101132090Y-109692716D01*
X101132090Y-109625610D01*
X101224993Y-109635013D01*
X101224993Y-109568335D01*
X101300770Y-109568335D01*
X101358381Y-109487124D01*
X101335544Y-109477294D01*
X101312188Y-109477294D01*
X101416510Y-109467890D01*
X101416510Y-109439253D01*
X101464587Y-109357753D01*
X101643320Y-109324275D01*
X101759061Y-109204596D01*
X101712868Y-109185790D01*
X101820658Y-109127537D01*
X101951097Y-109094748D01*
X101985871Y-109028070D01*
X102084484Y-108999005D01*
X102095902Y-108922496D01*
X102157146Y-108812648D01*
X102177388Y-108736139D01*
X102223580Y-108755373D01*
X102357486Y-108511313D01*
X102327927Y-108451117D01*
X102200744Y-108353593D01*
X102169006Y-108300042D01*
X102095902Y-108281786D01*
X102008708Y-108195874D01*
X101903821Y-108169952D01*
X101608027Y-108038154D01*
X100678989Y-108038154D01*
X100191632Y-108056960D01*
X100075373Y-108018920D01*
X99204464Y-108018920D01*
X99047721Y-108038154D01*
X98751363Y-108038154D01*
X98501716Y-108018920D01*
X98205877Y-108056960D01*
X98126196Y-108029428D01*
X97851389Y-107999685D01*
X97706065Y-107903942D01*
X97561259Y-107903942D01*
X97514548Y-107822732D01*
G37*
G36*
X97659872Y-103140718D02*
G01*
X97671290Y-103121484D01*
X97671290Y-103112081D01*
X97743948Y-103190161D01*
X97787550Y-103207397D01*
X97828033Y-103178759D01*
X97979067Y-103245865D01*
X98002423Y-103442053D01*
X98182521Y-103470690D01*
X98182521Y-103532667D01*
X98324219Y-103476045D01*
X98420750Y-103460860D01*
X98501716Y-103470690D01*
X98565555Y-103460860D01*
X98588911Y-103542498D01*
X98896195Y-103482106D01*
X99047721Y-103422819D01*
X99204464Y-103513433D01*
X99349788Y-103422819D01*
X99500303Y-103460860D01*
X99622870Y-103448690D01*
X99668983Y-103422819D01*
X99773306Y-103374947D01*
X99849082Y-103403585D01*
X99953404Y-103374947D01*
X100000116Y-103384351D01*
X100034890Y-103355713D01*
X100086791Y-103384351D01*
X100121565Y-103355713D01*
X100383149Y-103374947D01*
X100464635Y-103317672D01*
X100574666Y-103336479D01*
X100702344Y-103307841D01*
X100783830Y-103317672D01*
X100882443Y-103298438D01*
X100940573Y-103327076D01*
X101115650Y-103313453D01*
X101207347Y-103281769D01*
X101300770Y-103226631D01*
X101451284Y-103289035D01*
X101695222Y-103197993D01*
X101892967Y-103159952D01*
X102008708Y-103073613D01*
X102310775Y-103150122D01*
X102334131Y-103130887D01*
X102392260Y-103226631D01*
X102392260Y-103178759D01*
X102583777Y-103178759D01*
X102491226Y-103382155D01*
X102392260Y-103532667D01*
X102496583Y-103532667D01*
X102560422Y-103738258D01*
X102665263Y-103824598D01*
X102653326Y-103872042D01*
X102679248Y-103942477D01*
X102758167Y-103982318D01*
X102734811Y-104030190D01*
X102807876Y-104052036D01*
X102833424Y-104120804D01*
X102833424Y-104159272D01*
X102937746Y-104570455D01*
X102984458Y-104570455D01*
X103036878Y-105077381D01*
X102926328Y-105254335D01*
X102863809Y-105296620D01*
X102833424Y-105459926D01*
X102775294Y-105431289D01*
X102731442Y-105452600D01*
X102711455Y-105541137D01*
X102711455Y-105569774D01*
X102478936Y-105708688D01*
X102287419Y-105842472D01*
X102223580Y-105832641D01*
X102165450Y-105880512D01*
X101973934Y-105880512D01*
X101939159Y-105942916D01*
X101822900Y-105909150D01*
X101788126Y-105952320D01*
X101573253Y-105942916D01*
X101376920Y-106042976D01*
X101143508Y-106076700D01*
X101085897Y-106076700D01*
X100836250Y-106205783D01*
X100812895Y-106138677D01*
X100664456Y-106203646D01*
X100552130Y-106248227D01*
X100429342Y-106263058D01*
X100406505Y-106263058D01*
X100388285Y-106344044D01*
X100348375Y-106363503D01*
X100302870Y-106347807D01*
X100272599Y-106291695D01*
X100214469Y-106344269D01*
X100168277Y-106313494D01*
X100075373Y-106282292D01*
X99981072Y-106299564D01*
X99849082Y-106363503D01*
X99837144Y-106401971D01*
X99715176Y-106420778D01*
X99587498Y-106401971D01*
X99454111Y-106430608D01*
X99372625Y-106420778D01*
X98931461Y-106487883D01*
X98696347Y-106516948D01*
X98577493Y-106545158D01*
X98513654Y-106578925D01*
X98466942Y-106526352D01*
X98231909Y-106502344D01*
X98002423Y-106449842D01*
X97944293Y-106526352D01*
X97755531Y-106480045D01*
X97590946Y-106359629D01*
X97445000Y-106138677D01*
X97364042Y-106105338D01*
X97798968Y-106105338D01*
X97932875Y-106243824D01*
X98013841Y-106263058D01*
X98049134Y-106310929D01*
X98182521Y-106282292D01*
X98466942Y-106291695D01*
X98612267Y-106205783D01*
X98849976Y-106282292D01*
X98942880Y-106225017D01*
X99035784Y-106263058D01*
X99181108Y-106124572D01*
X99326433Y-106177145D01*
X99645628Y-106138677D01*
X99703757Y-106105338D01*
X99918630Y-106105338D01*
X99964822Y-106067297D01*
X100070681Y-106042042D01*
X100179695Y-105980957D01*
X100383149Y-105980957D01*
X100510827Y-105909150D01*
X100574666Y-105909150D01*
X100773128Y-105887103D01*
X100940573Y-105823237D01*
X101033476Y-105861278D01*
X101166864Y-105737325D01*
X101213575Y-105813834D01*
X101822900Y-105636880D01*
X102093611Y-105502417D01*
X102200744Y-105412055D01*
X102270292Y-105412055D01*
X102287419Y-105302206D01*
X102334131Y-105282972D01*
X102368905Y-105196632D01*
X102415616Y-105215867D01*
X102522694Y-104993895D01*
X102549003Y-104871789D01*
X102519938Y-104718771D01*
X102549003Y-104637133D01*
X102496583Y-104589689D01*
X102549003Y-104479413D01*
X102473227Y-104431542D01*
X102473227Y-104273822D01*
X102415616Y-104225950D01*
X102438453Y-104149441D01*
X102392260Y-104048996D01*
X102095902Y-103776727D01*
X102037773Y-103619007D01*
X101822900Y-103561304D01*
X101509414Y-103580539D01*
X101405092Y-103666451D01*
X101190219Y-103738258D01*
X101085897Y-103719024D01*
X101022058Y-103786130D01*
X100893861Y-103805364D01*
X100678989Y-103943850D01*
X100609440Y-103915212D01*
X100563248Y-103934446D01*
X100417923Y-103943850D01*
X100417923Y-104010956D01*
X100362389Y-104092166D01*
X100214469Y-104168675D01*
X100123909Y-104240160D01*
X100000116Y-104273822D01*
X100022952Y-104316992D01*
X99834549Y-104422138D01*
X99703757Y-104489244D01*
X99645628Y-104470010D01*
X99622272Y-104560624D01*
X99523659Y-104541817D01*
X99372625Y-104637133D01*
X99372625Y-104694836D01*
X99238886Y-104752566D01*
X99122978Y-104900427D01*
X98896687Y-104972234D01*
X98786137Y-105129954D01*
X98670396Y-105235101D01*
X98670396Y-105196632D01*
X98420750Y-105373586D01*
X98374038Y-105402224D01*
X98374038Y-105421458D01*
X98252069Y-105507798D01*
X98185116Y-105529169D01*
X98135810Y-105684752D01*
X98049134Y-105665518D01*
X97996939Y-105795514D01*
X97863326Y-105880512D01*
X97798968Y-106105338D01*
X97364042Y-106105338D01*
X97291836Y-106075603D01*
X97253483Y-106009595D01*
X97253483Y-105980957D01*
X97375451Y-105832641D01*
X97410225Y-105727494D01*
X97863326Y-105412055D01*
X98101036Y-105129954D01*
X98240651Y-105077381D01*
X98501716Y-104871789D01*
X98658459Y-104795280D01*
X98942880Y-104560624D01*
X99262594Y-104412735D01*
X99314495Y-104345629D01*
X99426636Y-104290172D01*
X99523659Y-104207144D01*
X99610853Y-104207144D01*
X99668983Y-104140038D01*
X99837144Y-104120804D01*
X99895274Y-104010956D01*
X100022952Y-104001552D01*
X100087244Y-103940414D01*
X100214469Y-103872042D01*
X100301664Y-103719024D01*
X100191632Y-103628410D01*
X100075373Y-103647644D01*
X99837144Y-103647644D01*
X99837144Y-103700218D01*
X99692339Y-103690387D01*
X99645628Y-103738258D01*
X99535596Y-103757493D01*
X99430755Y-103700218D01*
X99372625Y-103786130D01*
X99239238Y-103719024D01*
X98989591Y-103757493D01*
X98228714Y-103700218D01*
X97863326Y-103719024D01*
X97787550Y-103647644D01*
X97526485Y-103647644D01*
X97299675Y-103494626D01*
X97340677Y-103422819D01*
X97299675Y-103374947D01*
X97363514Y-103226631D01*
X97468355Y-103197993D01*
X97549322Y-103059508D01*
X97659872Y-103140718D01*
G37*
G36*
X99250656Y-96068545D02*
G01*
X99167435Y-96082954D01*
X99064849Y-96187796D01*
X99024365Y-96173691D01*
X98955224Y-96195148D01*
X98777314Y-96302773D01*
X98594159Y-96406989D01*
X98490298Y-96431856D01*
X98455524Y-96537002D01*
X98310063Y-96560659D01*
X98219900Y-96618349D01*
X98170584Y-96713956D01*
X98101036Y-96761828D01*
X98101036Y-96781062D01*
X98028226Y-96814321D01*
X98002423Y-96890910D01*
X97863326Y-96948185D01*
X97828033Y-97087098D01*
X97735129Y-97201648D01*
X97706065Y-97263625D01*
X97659872Y-97479047D01*
X97671290Y-97555556D01*
X97659872Y-97627363D01*
X97706065Y-97656001D01*
X97718002Y-97741913D01*
X97886163Y-97852189D01*
X97886163Y-97899633D01*
X98013841Y-97938101D01*
X98219035Y-98065315D01*
X98339264Y-98095821D01*
X98432168Y-98095821D01*
X98588911Y-98162927D01*
X98658459Y-98162927D01*
X98693233Y-98115055D01*
X98861913Y-98153096D01*
X99076786Y-98224904D01*
X99395981Y-98210799D01*
X99587498Y-98311243D01*
X99883856Y-98311243D01*
X100669995Y-98426415D01*
X100940573Y-98449729D01*
X100986765Y-98449729D01*
X101120671Y-98468963D01*
X101190219Y-98459132D01*
X101388851Y-98547771D01*
X101521352Y-98574110D01*
X101573253Y-98621981D01*
X101312188Y-98827573D01*
X101143508Y-98928018D01*
X100644214Y-99272095D01*
X100348375Y-99405879D01*
X100066550Y-99520856D01*
X99802370Y-99711915D01*
X99692339Y-99683278D01*
X99465529Y-99750383D01*
X99454111Y-99826892D01*
X99349788Y-99826892D01*
X99349788Y-99879466D01*
X99076786Y-100065823D01*
X98915686Y-100104985D01*
X98849976Y-100190204D01*
X98629394Y-100267140D01*
X98514101Y-100315182D01*
X98478360Y-100376988D01*
X98432168Y-100415029D01*
X98138924Y-100585144D01*
X97909519Y-100806978D01*
X97741886Y-100858752D01*
X97671290Y-100926657D01*
X97613161Y-100936060D01*
X97459532Y-100984359D01*
X97399204Y-101049468D01*
X97328740Y-101218588D01*
X97373465Y-101275389D01*
X97526485Y-101328436D01*
X97685605Y-101381191D01*
X97752776Y-101442986D01*
X97828033Y-101471624D01*
X97979067Y-101395115D01*
X98124392Y-101404945D01*
X98182521Y-101357074D01*
X98286844Y-101404945D01*
X98432168Y-101395115D01*
X98693233Y-101471624D01*
X98849976Y-101404945D01*
X99012947Y-101442986D01*
X99197365Y-101395662D01*
X99500303Y-101376308D01*
X99564142Y-101376308D01*
X99703757Y-101433583D01*
X99783016Y-101373510D01*
X99849082Y-101357074D01*
X100034890Y-101376308D01*
X100487472Y-101318606D01*
X100574666Y-101357074D01*
X100760474Y-101347670D01*
X100871024Y-101395115D01*
X101248349Y-101357074D01*
X101381736Y-101376308D01*
X101596609Y-101347670D01*
X101904385Y-101376308D01*
X102061128Y-101309202D01*
X101973934Y-101115579D01*
X101866497Y-101091643D01*
X101596609Y-101084377D01*
X101439866Y-101003166D01*
X101213575Y-101031803D01*
X100725700Y-100993763D01*
X100464635Y-101060441D01*
X100156858Y-101031803D01*
X100011534Y-101031803D01*
X99837144Y-101122845D01*
X99587498Y-101060441D01*
X99262594Y-101132248D01*
X99122978Y-101084377D01*
X98822977Y-101147945D01*
X98658459Y-101160886D01*
X98228714Y-101151482D01*
X98170584Y-101122845D01*
X98240651Y-101003166D01*
X98240651Y-100907423D01*
X98501716Y-100854849D01*
X98558617Y-100763241D01*
X98635103Y-100721065D01*
X98738229Y-100678371D01*
X98774719Y-100572749D01*
X98892788Y-100546585D01*
X98954817Y-100506071D01*
X98982410Y-100472591D01*
X99122978Y-100415029D01*
X99372625Y-100257309D01*
X99535596Y-100257309D01*
X99535596Y-100247479D01*
X99619677Y-100159429D01*
X99683369Y-100101512D01*
X99703757Y-100032484D01*
X99918630Y-99946571D01*
X100121565Y-99807658D01*
X100452698Y-99683278D01*
X100574666Y-99702512D01*
X100609440Y-99673874D01*
X100778382Y-99518426D01*
X100917217Y-99477686D01*
X101062541Y-99477686D01*
X101140068Y-99354852D01*
X101190219Y-99329370D01*
X101257172Y-99343902D01*
X101312188Y-99358435D01*
X101356809Y-99348115D01*
X101370318Y-99319966D01*
X101335544Y-99243457D01*
X101531697Y-99178010D01*
X101626196Y-99105194D01*
X101654739Y-99023333D01*
X101631383Y-98937421D01*
X101786339Y-98915191D01*
X101904385Y-98851509D01*
X101972097Y-98802467D01*
X102084484Y-98621981D01*
X102177388Y-98574110D01*
X102177388Y-98535642D01*
X102008708Y-98397156D01*
X101927741Y-98377922D01*
X101904385Y-98330050D01*
X101678094Y-98311243D01*
X101585191Y-98181734D01*
X101381736Y-98224904D01*
X101010121Y-98153096D01*
X100667570Y-98153096D01*
X100261181Y-98086418D01*
X99837144Y-98057780D01*
X99442692Y-97957336D01*
X99047721Y-97938101D01*
X98934057Y-97888093D01*
X98670396Y-97823124D01*
X98635103Y-97780382D01*
X98455524Y-97780382D01*
X98339264Y-97694042D01*
X98252069Y-97713276D01*
X98205877Y-97646170D01*
X98147747Y-97646170D01*
X98077680Y-97488450D01*
X98124392Y-97340134D01*
X98101036Y-97292690D01*
X98119832Y-97253854D01*
X98193940Y-97206350D01*
X98232076Y-97094304D01*
X98286844Y-97067864D01*
X98315908Y-97067864D01*
X98353249Y-97030527D01*
X98432168Y-96871676D01*
X98548428Y-96771231D01*
X98577493Y-96781062D01*
X98643927Y-96745158D01*
X98748249Y-96651980D01*
X98873332Y-96560938D01*
X99001010Y-96508365D01*
X99337851Y-96322008D01*
X99419337Y-96187796D01*
X99419337Y-96097182D01*
X99250656Y-96068545D01*
G37*
G36*
X98513654Y-90470132D02*
G01*
X98466942Y-90585109D01*
X98288303Y-90641411D01*
X98179173Y-90729010D01*
X98124392Y-90852677D01*
X98049134Y-90881315D01*
X98032154Y-90931083D01*
X97979067Y-90967655D01*
X97917823Y-90989026D01*
X97798968Y-91221118D01*
X97741358Y-91230521D01*
X97741358Y-91321563D01*
X97601742Y-91398072D01*
X97445000Y-91613066D01*
X97410225Y-91857126D01*
X97433581Y-92220437D01*
X97479774Y-92473900D01*
X97549322Y-92473900D01*
X97612485Y-92602269D01*
X97711774Y-92724799D01*
X97830139Y-92811360D01*
X97909519Y-92817978D01*
X97963112Y-92858182D01*
X98118682Y-92894487D01*
X98339264Y-92918422D01*
X98501716Y-92909019D01*
X98635103Y-92918422D01*
X98693233Y-92865849D01*
X99122978Y-92918422D01*
X99157752Y-92865849D01*
X99465529Y-92817978D01*
X99564142Y-92751299D01*
X99809047Y-92713445D01*
X100000116Y-92602983D01*
X99953404Y-92402093D01*
X99895274Y-92320882D01*
X99900792Y-92311051D01*
X100452698Y-92311051D01*
X100510827Y-92473900D01*
X100609440Y-92507240D01*
X100656152Y-92574345D01*
X101063817Y-92368514D01*
X101213056Y-92316181D01*
X101364609Y-92263180D01*
X101439866Y-92191800D01*
X101759061Y-92052887D01*
X101863902Y-91981079D01*
X101965110Y-91921667D01*
X102017531Y-91907135D01*
X102066837Y-91893030D01*
X102104726Y-91876360D01*
X102130676Y-91857126D01*
X102148323Y-91835327D01*
X102154032Y-91809255D01*
X102142614Y-91770786D01*
X102223580Y-91742149D01*
X102310775Y-91479282D01*
X102391192Y-91438098D01*
X102415616Y-91378838D01*
X102392260Y-91321563D01*
X102415616Y-91221118D01*
X102334131Y-91024930D01*
X101985871Y-90957824D01*
X101819786Y-90977058D01*
X101509414Y-91115544D01*
X101370318Y-91144609D01*
X101224993Y-91273691D01*
X101166864Y-91273691D01*
X101055941Y-91395843D01*
X101022058Y-91517323D01*
X100893861Y-91565195D01*
X100893861Y-91632301D01*
X100749056Y-91704108D01*
X100725700Y-91818658D01*
X100656152Y-91909699D01*
X100678989Y-91986209D01*
X100609440Y-92014846D01*
X100550426Y-92166976D01*
X100452698Y-92311051D01*
X99900792Y-92311051D01*
X100000116Y-92134098D01*
X100000116Y-92005015D01*
X100179695Y-91790020D01*
X100156858Y-91713511D01*
X100172572Y-91677879D01*
X100226407Y-91651107D01*
X100391124Y-91417540D01*
X100702344Y-91077503D01*
X100871024Y-91068100D01*
X101166864Y-90871912D01*
X101521352Y-90762063D01*
X101573253Y-90714192D01*
X101904385Y-90742829D01*
X102037773Y-90714192D01*
X102266862Y-90736687D01*
X102410981Y-90794195D01*
X102496583Y-90881315D01*
X102519938Y-90838572D01*
X102641907Y-90900549D01*
X102641907Y-90929187D01*
X102687757Y-91047929D01*
X102833424Y-91125375D01*
X102833424Y-91182650D01*
X102880136Y-91230521D01*
X102856780Y-91321563D01*
X102926328Y-91407475D01*
X102856780Y-91584429D01*
X102722874Y-91660938D01*
X102734811Y-91742149D01*
X102536932Y-91897612D01*
X102461809Y-92005015D01*
X102287419Y-92105460D01*
X102258354Y-92163162D01*
X102142614Y-92210607D01*
X102142614Y-92258478D01*
X102006433Y-92281664D01*
X101904385Y-92349520D01*
X101640140Y-92472537D01*
X101358381Y-92564515D01*
X101286978Y-92623586D01*
X101213575Y-92641024D01*
X101132090Y-92631620D01*
X101085897Y-92817978D01*
X101109441Y-92882924D01*
X101190219Y-92947060D01*
X100940573Y-92975697D01*
X100586085Y-92928253D01*
X100417923Y-92994931D01*
X100301664Y-92909019D01*
X100214469Y-92994931D01*
X99918630Y-92956891D01*
X99741646Y-93014166D01*
X99610853Y-93081271D01*
X99454111Y-93062037D01*
X99239238Y-93114610D01*
X98989591Y-93114610D01*
X98763300Y-93152651D01*
X98362620Y-93171885D01*
X97798968Y-93062037D01*
X97706065Y-93062037D01*
X97555550Y-92956891D01*
X97433581Y-92918422D01*
X97328740Y-92760703D01*
X97183934Y-92760703D01*
X97063554Y-92638247D01*
X97003836Y-92406795D01*
X96945706Y-92349520D01*
X96957124Y-92220437D01*
X96914625Y-92145912D01*
X96898995Y-92043483D01*
X96957124Y-91880635D01*
X96898995Y-91818658D01*
X96987536Y-91729275D01*
X97015254Y-91632301D01*
X97003836Y-91565195D01*
X97061966Y-91536557D01*
X97061966Y-91398072D01*
X97183934Y-91311732D01*
X97171997Y-91230521D01*
X97299675Y-91182650D01*
X97514548Y-90919783D01*
X97537903Y-90800104D01*
X97787550Y-90694958D01*
X97798968Y-90623150D01*
X98118682Y-90486802D01*
X98315908Y-90398325D01*
X98513654Y-90470132D01*
G37*
G36*
X97659872Y-86180495D02*
G01*
X97671290Y-86161261D01*
X97671290Y-86151857D01*
X97743948Y-86229938D01*
X97787550Y-86247173D01*
X97828033Y-86218536D01*
X97979067Y-86285642D01*
X98002423Y-86481830D01*
X98182521Y-86510467D01*
X98182521Y-86572444D01*
X98324219Y-86515821D01*
X98420750Y-86500636D01*
X98501716Y-86510467D01*
X98565555Y-86500636D01*
X98588911Y-86582274D01*
X98896195Y-86521883D01*
X99047721Y-86462595D01*
X99204464Y-86553210D01*
X99349788Y-86462595D01*
X99500303Y-86500636D01*
X99622870Y-86488467D01*
X99668983Y-86462595D01*
X99773306Y-86414724D01*
X99849082Y-86443361D01*
X99953404Y-86414724D01*
X100000116Y-86424127D01*
X100034890Y-86395490D01*
X100086791Y-86424127D01*
X100121565Y-86395490D01*
X100383149Y-86414724D01*
X100464635Y-86357449D01*
X100574666Y-86376256D01*
X100702344Y-86347618D01*
X100783830Y-86357449D01*
X100882443Y-86338215D01*
X100940573Y-86366852D01*
X101115650Y-86353229D01*
X101207347Y-86321545D01*
X101300770Y-86266407D01*
X101451284Y-86328811D01*
X101695222Y-86237770D01*
X101892967Y-86199729D01*
X102008708Y-86113389D01*
X102310775Y-86189898D01*
X102334131Y-86170664D01*
X102392260Y-86266407D01*
X102392260Y-86218536D01*
X102583777Y-86218536D01*
X102491226Y-86421931D01*
X102392260Y-86572444D01*
X102496583Y-86572444D01*
X102560422Y-86778035D01*
X102665263Y-86864375D01*
X102653326Y-86911819D01*
X102679248Y-86982254D01*
X102758167Y-87022095D01*
X102734811Y-87069966D01*
X102807876Y-87091813D01*
X102833424Y-87160580D01*
X102833424Y-87199049D01*
X102937746Y-87610232D01*
X102984458Y-87610232D01*
X103036878Y-88117158D01*
X102926328Y-88294112D01*
X102863809Y-88336397D01*
X102833424Y-88499703D01*
X102775294Y-88471065D01*
X102731442Y-88492377D01*
X102711455Y-88580914D01*
X102711455Y-88609551D01*
X102478936Y-88748464D01*
X102287419Y-88882248D01*
X102223580Y-88872418D01*
X102165450Y-88920289D01*
X101973934Y-88920289D01*
X101939159Y-88982693D01*
X101822900Y-88948927D01*
X101788126Y-88992096D01*
X101573253Y-88982693D01*
X101376920Y-89082753D01*
X101143508Y-89116477D01*
X101085897Y-89116477D01*
X100836250Y-89245560D01*
X100812895Y-89178454D01*
X100664456Y-89243422D01*
X100552130Y-89288004D01*
X100429342Y-89302834D01*
X100406505Y-89302834D01*
X100388285Y-89383821D01*
X100348375Y-89403279D01*
X100302870Y-89387584D01*
X100272599Y-89331472D01*
X100214469Y-89384045D01*
X100168277Y-89353271D01*
X100075373Y-89322069D01*
X99981072Y-89339341D01*
X99849082Y-89403279D01*
X99837144Y-89441748D01*
X99715176Y-89460554D01*
X99587498Y-89441748D01*
X99454111Y-89470385D01*
X99372625Y-89460554D01*
X98931461Y-89527660D01*
X98696347Y-89556725D01*
X98577493Y-89584935D01*
X98513654Y-89618702D01*
X98466942Y-89566128D01*
X98231909Y-89542120D01*
X98002423Y-89489619D01*
X97944293Y-89566128D01*
X97755531Y-89519822D01*
X97590946Y-89399406D01*
X97445000Y-89178454D01*
X97364043Y-89145115D01*
X97798968Y-89145115D01*
X97932875Y-89283600D01*
X98013841Y-89302834D01*
X98049134Y-89350706D01*
X98182521Y-89322069D01*
X98466942Y-89331472D01*
X98612267Y-89245560D01*
X98849976Y-89322069D01*
X98942880Y-89264794D01*
X99035784Y-89302834D01*
X99181108Y-89164349D01*
X99326433Y-89216922D01*
X99645628Y-89178454D01*
X99703757Y-89145115D01*
X99918630Y-89145115D01*
X99964822Y-89107074D01*
X100070681Y-89081819D01*
X100179695Y-89020734D01*
X100383149Y-89020734D01*
X100510827Y-88948927D01*
X100574666Y-88948927D01*
X100773128Y-88926880D01*
X100940573Y-88863014D01*
X101033476Y-88901055D01*
X101166864Y-88777102D01*
X101213575Y-88853611D01*
X101822900Y-88676657D01*
X102093611Y-88542194D01*
X102200744Y-88451831D01*
X102270292Y-88451831D01*
X102287419Y-88341983D01*
X102334131Y-88322749D01*
X102368905Y-88236409D01*
X102415616Y-88255643D01*
X102522694Y-88033671D01*
X102549003Y-87911566D01*
X102519938Y-87758548D01*
X102549003Y-87676910D01*
X102496583Y-87629466D01*
X102549003Y-87519190D01*
X102473227Y-87471318D01*
X102473227Y-87313599D01*
X102415616Y-87265727D01*
X102438453Y-87189218D01*
X102392260Y-87088773D01*
X102095902Y-86816503D01*
X102037773Y-86658784D01*
X101822900Y-86601081D01*
X101509414Y-86620315D01*
X101405092Y-86706228D01*
X101190219Y-86778035D01*
X101085897Y-86758801D01*
X101022058Y-86825907D01*
X100893861Y-86845141D01*
X100678989Y-86983627D01*
X100609440Y-86954989D01*
X100563248Y-86974223D01*
X100417923Y-86983627D01*
X100417923Y-87050732D01*
X100362389Y-87131943D01*
X100214469Y-87208452D01*
X100123909Y-87279936D01*
X100000116Y-87313599D01*
X100022952Y-87356769D01*
X99834549Y-87461915D01*
X99703757Y-87529021D01*
X99645628Y-87509787D01*
X99622272Y-87600401D01*
X99523659Y-87581594D01*
X99372625Y-87676910D01*
X99372625Y-87734612D01*
X99238886Y-87792342D01*
X99122978Y-87940204D01*
X98896687Y-88012011D01*
X98786137Y-88169731D01*
X98670396Y-88274877D01*
X98670396Y-88236409D01*
X98420750Y-88413363D01*
X98374038Y-88442001D01*
X98374038Y-88461235D01*
X98252069Y-88547575D01*
X98185116Y-88568946D01*
X98135810Y-88724528D01*
X98049134Y-88705294D01*
X97996939Y-88835291D01*
X97863326Y-88920289D01*
X97798968Y-89145115D01*
X97364043Y-89145115D01*
X97291836Y-89115379D01*
X97253483Y-89049371D01*
X97253483Y-89020734D01*
X97375451Y-88872418D01*
X97410225Y-88767271D01*
X97863326Y-88451831D01*
X98101036Y-88169731D01*
X98240651Y-88117158D01*
X98501716Y-87911566D01*
X98658459Y-87835057D01*
X98942880Y-87600401D01*
X99262594Y-87452512D01*
X99314495Y-87385406D01*
X99426636Y-87329948D01*
X99523659Y-87246920D01*
X99610853Y-87246920D01*
X99668983Y-87179815D01*
X99837144Y-87160580D01*
X99895274Y-87050732D01*
X100022952Y-87041329D01*
X100087244Y-86980191D01*
X100214469Y-86911819D01*
X100301664Y-86758801D01*
X100191632Y-86668187D01*
X100075373Y-86687421D01*
X99837144Y-86687421D01*
X99837144Y-86739994D01*
X99692339Y-86730163D01*
X99645628Y-86778035D01*
X99535596Y-86797269D01*
X99430755Y-86739994D01*
X99372625Y-86825907D01*
X99239238Y-86758801D01*
X98989591Y-86797269D01*
X98228714Y-86739994D01*
X97863326Y-86758801D01*
X97787550Y-86687421D01*
X97526485Y-86687421D01*
X97299675Y-86534403D01*
X97340677Y-86462595D01*
X97299675Y-86414724D01*
X97363514Y-86266407D01*
X97468355Y-86237770D01*
X97549322Y-86099284D01*
X97659872Y-86180495D01*
G37*
G36*
X98362620Y-81456167D02*
G01*
X98269716Y-81522845D01*
X97909519Y-81651927D01*
X97787550Y-81790840D01*
X97718002Y-81781010D01*
X97718002Y-81910092D01*
X97549322Y-82034473D01*
X97549322Y-82202023D01*
X97479774Y-82311871D01*
X97410225Y-82417018D01*
X97445000Y-82546100D01*
X97410225Y-82670481D01*
X97340677Y-82670481D01*
X97363514Y-82847435D01*
X97340677Y-82986348D01*
X97363514Y-83115430D01*
X97328740Y-83134237D01*
X97363514Y-83182109D01*
X97328740Y-83268449D01*
X97328740Y-83330425D01*
X97299675Y-83474040D01*
X97340677Y-83574485D01*
X97276838Y-83650994D01*
X97328740Y-83689035D01*
X97276838Y-83760842D01*
X97345007Y-83882164D01*
X97363514Y-83966434D01*
X97328740Y-84052346D01*
X97381161Y-84219897D01*
X97410225Y-84434891D01*
X97386870Y-84593039D01*
X97433581Y-84611845D01*
X97363514Y-84698185D01*
X97410225Y-84769993D01*
X97479774Y-84798630D01*
X97540662Y-84960260D01*
X97699107Y-85059956D01*
X98002423Y-85099965D01*
X98037197Y-84893946D01*
X98124392Y-84903777D01*
X98205877Y-84855905D01*
X98135810Y-84827267D01*
X98135810Y-84769993D01*
X98077680Y-84769993D01*
X98135810Y-84678951D01*
X98103511Y-84619813D01*
X98049134Y-84602442D01*
X97944293Y-84631079D01*
X97932875Y-84545167D01*
X97752776Y-84545167D01*
X97706065Y-84296406D01*
X97601742Y-84200662D01*
X97659872Y-84172025D01*
X97752776Y-82919242D01*
X97851389Y-82488825D01*
X97909519Y-82464890D01*
X97932875Y-82359743D01*
X97979067Y-82331106D01*
X98054605Y-82117755D01*
X98170584Y-81939157D01*
X98135810Y-81910092D01*
X98205877Y-81891285D01*
X98275425Y-81819478D01*
X98315908Y-81810075D01*
X98397394Y-81857519D01*
X98501716Y-81838712D01*
X98612267Y-81948560D01*
X98705170Y-81967794D01*
X98774719Y-82063110D01*
X98751363Y-82106280D01*
X98861913Y-82202023D01*
X98861913Y-82240064D01*
X98931461Y-82283234D01*
X98931461Y-82378977D01*
X99001179Y-82420805D01*
X99024365Y-82488825D01*
X99012947Y-82555931D01*
X99043386Y-82709890D01*
X99134916Y-82847435D01*
X99134916Y-82947880D01*
X99227820Y-83072260D01*
X99181108Y-83134237D01*
X99239238Y-83163302D01*
X99239238Y-83229980D01*
X99349788Y-83340256D01*
X99500303Y-83631760D01*
X99622272Y-83741608D01*
X99692339Y-84071580D01*
X99727113Y-84081411D01*
X99964822Y-84358382D01*
X100348375Y-84482763D01*
X100534183Y-84583208D01*
X101085897Y-84611845D01*
X101143508Y-84583208D01*
X101363750Y-84557536D01*
X101550416Y-84482763D01*
X101689504Y-84336221D01*
X101800063Y-84296406D01*
X101788126Y-84229300D01*
X101924804Y-84169325D01*
X102072547Y-84047644D01*
X102200744Y-83928393D01*
X102496583Y-83359063D01*
X102560422Y-83072260D01*
X102665263Y-82790160D01*
X102629970Y-82350340D01*
X102560422Y-82331106D01*
X102560422Y-82302468D01*
X102543902Y-82228472D01*
X102496583Y-82173386D01*
X102392260Y-82173386D01*
X102287419Y-82053707D01*
X101973934Y-82106280D01*
X101895734Y-82127830D01*
X101869611Y-82192620D01*
X101905958Y-82230736D01*
X102119258Y-82331106D01*
X102142614Y-82593972D01*
X102119258Y-82661078D01*
X102258354Y-82838032D01*
X102223580Y-82866669D01*
X102142614Y-82957711D01*
X102115008Y-83108080D01*
X102037773Y-83220577D01*
X101976421Y-83383116D01*
X101892967Y-83474040D01*
X101892967Y-83583888D01*
X101817191Y-83665099D01*
X101736224Y-83856585D01*
X101678094Y-83894626D01*
X101643320Y-83947199D01*
X101486577Y-84081411D01*
X101312188Y-84172025D01*
X101166864Y-84315640D01*
X100678989Y-84416085D01*
X100644214Y-84368213D01*
X100609440Y-84368213D01*
X100430786Y-84330707D01*
X100272599Y-84210493D01*
X100214469Y-84210493D01*
X100022952Y-83947199D01*
X100022952Y-83885223D01*
X99849082Y-83741608D01*
X99849082Y-83545847D01*
X99727113Y-83426168D01*
X99692339Y-83201343D01*
X99622272Y-83134237D01*
X99465529Y-82713651D01*
X99414681Y-82697006D01*
X99395981Y-82641844D01*
X99378432Y-82526571D01*
X99326433Y-82422147D01*
X99239238Y-82230661D01*
X99181108Y-82221257D01*
X99122978Y-82134918D01*
X99122978Y-81948560D01*
X98989591Y-81781010D01*
X98873743Y-81735441D01*
X98774719Y-81651927D01*
X98739945Y-81661758D01*
X98658459Y-81613886D01*
X98635103Y-81527547D01*
X98548428Y-81566015D01*
X98450484Y-81490106D01*
X98362620Y-81456167D01*
G37*
G36*
X101904385Y-79605416D02*
G01*
X101869611Y-78931367D01*
X101904385Y-78285528D01*
X101892967Y-78127808D01*
X101904385Y-78061130D01*
X101904385Y-77707222D01*
X101876950Y-77630617D01*
X101800063Y-77606777D01*
X101705633Y-77640748D01*
X101643320Y-77764497D01*
X101666157Y-77845708D01*
X101608027Y-77970088D01*
X101643320Y-78108574D01*
X101631383Y-78371868D01*
X101538903Y-78556539D01*
X101509414Y-78735179D01*
X101550416Y-78921536D01*
X101439866Y-79017280D01*
X101439866Y-79108321D01*
X101509414Y-79108321D01*
X101416510Y-79275444D01*
X101416510Y-79361784D01*
X101312188Y-79390422D01*
X101358381Y-79677224D01*
X101288832Y-79725095D01*
X101335544Y-79782370D01*
X101312188Y-79921284D01*
X101190219Y-80016599D01*
X100609440Y-80045237D01*
X100261181Y-80026430D01*
X99814308Y-80055068D01*
X99314495Y-80045237D01*
X99076786Y-80016599D01*
X98861913Y-80016599D01*
X98565555Y-79902049D01*
X98513654Y-79902049D01*
X98325063Y-79858123D01*
X98124392Y-79705861D01*
X98025778Y-79677224D01*
X97979067Y-79500270D01*
X97810906Y-79371188D01*
X97729420Y-79007876D01*
X97863326Y-78529588D01*
X97810906Y-78391102D01*
X98002423Y-78051299D01*
X97979067Y-77922217D01*
X97895851Y-77870079D01*
X97828033Y-77855539D01*
X97746753Y-77880401D01*
X97636516Y-77979492D01*
X97671290Y-78051299D01*
X97514548Y-78204317D01*
X97468355Y-78529588D01*
X97386870Y-78639436D01*
X97468355Y-78754413D01*
X97389644Y-78921907D01*
X97363514Y-79098490D01*
X97410225Y-79294678D01*
X97410225Y-79399825D01*
X97659872Y-79753733D01*
X97944293Y-79921284D01*
X98101036Y-80035833D01*
X98670396Y-80212787D01*
X99204464Y-80293998D01*
X99419337Y-80250828D01*
X99535596Y-80332466D01*
X99668983Y-80293998D01*
X99883856Y-80332466D01*
X99976760Y-80232021D01*
X100086791Y-80274764D01*
X100226407Y-80250828D01*
X100383149Y-80293998D01*
X100609440Y-80274764D01*
X100725700Y-80293998D01*
X100760474Y-80250828D01*
X101190219Y-80250828D01*
X101317875Y-80291534D01*
X101346962Y-80332466D01*
X101300770Y-80389741D01*
X101358381Y-80499590D01*
X101312188Y-80652608D01*
X101451284Y-80810327D01*
X101451284Y-80891966D01*
X101488949Y-80976745D01*
X101608027Y-81006516D01*
X101788126Y-80997112D01*
X101846256Y-81063790D01*
X101951097Y-81025750D01*
X101927741Y-80882135D01*
X101951097Y-80772287D01*
X101892967Y-80614567D01*
X101892967Y-80203384D01*
X102165450Y-80184150D01*
X102438453Y-80184150D01*
X102641907Y-80250828D01*
X102711455Y-80174319D01*
X102798650Y-80155512D01*
X102865078Y-80172823D01*
X102926328Y-80232021D01*
X103390847Y-80212787D01*
X103536172Y-80293998D01*
X103640494Y-80274764D01*
X103679259Y-80350312D01*
X103733398Y-80370507D01*
X104046884Y-80303829D01*
X104209336Y-80212787D01*
X104043562Y-79955816D01*
X104006400Y-79921284D01*
X103994982Y-79921284D01*
X103878722Y-79959324D01*
X103617138Y-79892219D01*
X103582364Y-79892219D01*
X103414203Y-79921284D01*
X103321299Y-79892219D01*
X103222686Y-79902049D01*
X103094489Y-79892219D01*
X102926328Y-79978558D01*
X102629970Y-79921284D01*
X102270292Y-79959324D01*
X102200744Y-79921284D01*
X102095902Y-79978558D01*
X101800063Y-79902049D01*
X101800063Y-79725095D01*
X101904385Y-79605416D01*
G37*
M02*
